<svg width="357" height="237" viewBox="0 0 357 237" fill="none" xmlns="http://www.w3.org/2000/svg">
<g filter="url(#filter0_d_43_395)">
<rect x="7" y="1" width="347" height="227" fill="white" stroke="#0F1B44" stroke-width="2"/>
<rect x="8" y="143.667" width="345" height="83.3333" fill="#48B896"/>
<rect x="8" y="2" width="345" height="141.667" fill="#72EDCA" fill-opacity="0.51"/>
<path d="M128.448 82.2122H126.687C126.583 81.7055 126.4 81.2605 126.14 80.8769C125.884 80.4934 125.572 80.1714 125.203 79.911C124.838 79.6459 124.433 79.447 123.988 79.3144C123.543 79.1819 123.079 79.1156 122.596 79.1156C121.715 79.1156 120.918 79.3381 120.203 79.7832C119.492 80.2283 118.927 80.884 118.505 81.7505C118.088 82.617 117.88 83.68 117.88 84.9394C117.88 86.1989 118.088 87.2619 118.505 88.1284C118.927 88.9948 119.492 89.6506 120.203 90.0957C120.918 90.5408 121.715 90.7633 122.596 90.7633C123.079 90.7633 123.543 90.697 123.988 90.5644C124.433 90.4319 124.838 90.2354 125.203 89.9749C125.572 89.7098 125.884 89.3855 126.14 89.0019C126.4 88.6137 126.583 88.1686 126.687 87.6667H128.448C128.316 88.4101 128.074 89.0753 127.724 89.6624C127.374 90.2496 126.938 90.7491 126.417 91.161C125.896 91.5682 125.311 91.8784 124.663 92.0914C124.019 92.3045 123.33 92.411 122.596 92.411C121.356 92.411 120.252 92.108 119.286 91.5019C118.32 90.8959 117.561 90.0341 117.007 88.9167C116.453 87.7993 116.176 86.4735 116.176 84.9394C116.176 83.4053 116.453 82.0796 117.007 80.9622C117.561 79.8447 118.32 78.983 119.286 78.3769C120.252 77.7709 121.356 77.4678 122.596 77.4678C123.33 77.4678 124.019 77.5744 124.663 77.7874C125.311 78.0005 125.896 78.313 126.417 78.7249C126.938 79.1321 127.374 79.6293 127.724 80.2164C128.074 80.7988 128.316 81.4641 128.448 82.2122ZM135.499 92.4394C134.514 92.4394 133.65 92.2051 132.907 91.7363C132.168 91.2676 131.59 90.6118 131.174 89.769C130.762 88.9262 130.556 87.9413 130.556 86.8144C130.556 85.6781 130.762 84.6861 131.174 83.8386C131.59 82.991 132.168 82.3329 132.907 81.8641C133.65 81.3954 134.514 81.161 135.499 81.161C136.484 81.161 137.346 81.3954 138.084 81.8641C138.828 82.3329 139.405 82.991 139.817 83.8386C140.234 84.6861 140.442 85.6781 140.442 86.8144C140.442 87.9413 140.234 88.9262 139.817 89.769C139.405 90.6118 138.828 91.2676 138.084 91.7363C137.346 92.2051 136.484 92.4394 135.499 92.4394ZM135.499 90.9337C136.247 90.9337 136.863 90.742 137.346 90.3585C137.829 89.9749 138.186 89.4707 138.418 88.8457C138.65 88.2207 138.766 87.5436 138.766 86.8144C138.766 86.0853 138.65 85.4058 138.418 84.7761C138.186 84.1463 137.829 83.6373 137.346 83.2491C136.863 82.8608 136.247 82.6667 135.499 82.6667C134.751 82.6667 134.135 82.8608 133.653 83.2491C133.17 83.6373 132.812 84.1463 132.58 84.7761C132.348 85.4058 132.232 86.0853 132.232 86.8144C132.232 87.5436 132.348 88.2207 132.58 88.8457C132.812 89.4707 133.17 89.9749 133.653 90.3585C134.135 90.742 134.751 90.9337 135.499 90.9337ZM149.876 87.7519V81.3031H151.552V92.2122H149.876V90.3656H149.762C149.507 90.9195 149.109 91.3907 148.569 91.7789C148.029 92.1624 147.347 92.3542 146.524 92.3542C145.842 92.3542 145.236 92.2051 144.705 91.9068C144.175 91.6037 143.758 91.1492 143.455 90.5431C143.152 89.9323 143.001 89.1629 143.001 88.2349V81.3031H144.677V88.1212C144.677 88.9167 144.9 89.5512 145.345 90.0247C145.794 90.4981 146.367 90.7349 147.063 90.7349C147.48 90.7349 147.904 90.6284 148.335 90.4153C148.77 90.2022 149.135 89.8755 149.428 89.4352C149.727 88.9948 149.876 88.4337 149.876 87.7519ZM154.622 92.2122V81.3031H156.241V82.9508H156.355C156.554 82.411 156.914 81.973 157.434 81.6369C157.955 81.3007 158.542 81.1326 159.196 81.1326C159.319 81.1326 159.473 81.135 159.657 81.1397C159.842 81.1444 159.982 81.1516 160.077 81.161V82.8656C160.02 82.8514 159.889 82.8301 159.686 82.8016C159.487 82.7685 159.276 82.7519 159.054 82.7519C158.523 82.7519 158.05 82.8632 157.633 83.0857C157.221 83.3035 156.895 83.6066 156.653 83.9948C156.416 84.3784 156.298 84.8163 156.298 85.3087V92.2122H154.622ZM169.791 83.7462L168.285 84.1724C168.19 83.9214 168.051 83.6776 167.866 83.4409C167.686 83.1994 167.44 83.0005 167.127 82.8443C166.815 82.688 166.415 82.6099 165.927 82.6099C165.259 82.6099 164.703 82.7638 164.258 83.0715C163.818 83.3746 163.597 83.7605 163.597 84.2292C163.597 84.6459 163.749 84.9749 164.052 85.2164C164.355 85.4579 164.829 85.6591 165.472 85.8201L167.092 86.2178C168.067 86.4546 168.794 86.8168 169.272 87.3045C169.75 87.7874 169.99 88.4101 169.99 89.1724C169.99 89.7974 169.81 90.3561 169.45 90.8485C169.095 91.3409 168.597 91.7292 167.958 92.0133C167.319 92.2974 166.576 92.4394 165.728 92.4394C164.615 92.4394 163.695 92.198 162.965 91.715C162.236 91.232 161.775 90.5266 161.58 89.5985L163.171 89.2008C163.323 89.7879 163.609 90.2283 164.031 90.5218C164.457 90.8154 165.013 90.9622 165.7 90.9622C166.481 90.9622 167.101 90.7964 167.561 90.465C168.025 90.1288 168.257 89.7264 168.257 89.2576C168.257 88.8788 168.124 88.5616 167.859 88.3059C167.594 88.0455 167.186 87.8514 166.637 87.7235L164.819 87.2974C163.82 87.0606 163.086 86.6937 162.617 86.1965C162.153 85.6946 161.921 85.0673 161.921 84.3144C161.921 83.6989 162.094 83.1544 162.44 82.6809C162.79 82.2074 163.266 81.8357 163.867 81.5659C164.473 81.296 165.16 81.161 165.927 81.161C167.007 81.161 167.854 81.3978 168.47 81.8712C169.09 82.3447 169.53 82.9697 169.791 83.7462ZM177.086 92.4394C176.035 92.4394 175.129 92.2074 174.366 91.7434C173.609 91.2747 173.024 90.6212 172.612 89.7832C172.205 88.9404 172.001 87.9603 172.001 86.8428C172.001 85.7254 172.205 84.7406 172.612 83.8883C173.024 83.0313 173.597 82.3637 174.331 81.8855C175.069 81.4025 175.931 81.161 176.916 81.161C177.484 81.161 178.045 81.2557 178.599 81.4451C179.153 81.6345 179.657 81.9423 180.112 82.3684C180.567 82.7898 180.929 83.3485 181.199 84.0445C181.469 84.7406 181.604 85.5976 181.604 86.6156V87.3258H173.194V85.8769H179.899C179.899 85.2614 179.776 84.7122 179.53 84.2292C179.288 83.7462 178.943 83.3651 178.493 83.0857C178.048 82.8064 177.522 82.6667 176.916 82.6667C176.248 82.6667 175.671 82.8324 175.183 83.1639C174.7 83.4906 174.328 83.9167 174.068 84.4423C173.808 84.9678 173.677 85.5313 173.677 86.1326V87.0985C173.677 87.9224 173.819 88.6208 174.104 89.1937C174.392 89.7619 174.792 90.1951 175.304 90.4934C175.815 90.787 176.409 90.9337 177.086 90.9337C177.527 90.9337 177.925 90.8722 178.28 90.7491C178.639 90.6212 178.95 90.4319 179.21 90.1809C179.47 89.9252 179.672 89.608 179.814 89.2292L181.433 89.6837C181.263 90.233 180.976 90.7159 180.574 91.1326C180.171 91.5445 179.674 91.8665 179.082 92.0985C178.49 92.3258 177.825 92.4394 177.086 92.4394ZM191.767 77.6667V92.2122H190.005V77.6667H191.767ZM195.071 92.2122V81.3031H196.691V83.0076H196.833C197.06 82.4252 197.427 81.973 197.933 81.6511C198.44 81.3244 199.048 81.161 199.759 81.161C200.478 81.161 201.077 81.3244 201.556 81.6511C202.039 81.973 202.415 82.4252 202.685 83.0076H202.798C203.078 82.4442 203.497 81.9967 204.056 81.6653C204.614 81.3291 205.284 81.161 206.066 81.161C207.041 81.161 207.839 81.4664 208.459 82.0772C209.079 82.6833 209.389 83.6279 209.389 84.911V92.2122H207.713V84.911C207.713 84.1061 207.493 83.5308 207.053 83.1852C206.612 82.8395 206.094 82.6667 205.497 82.6667C204.73 82.6667 204.136 82.8987 203.715 83.3627C203.293 83.822 203.083 84.4044 203.083 85.1099V92.2122H201.378V84.7406C201.378 84.1203 201.177 83.6208 200.774 83.242C200.372 82.8585 199.853 82.6667 199.219 82.6667C198.783 82.6667 198.376 82.7827 197.997 83.0147C197.623 83.2467 197.32 83.5687 197.088 83.9806C196.861 84.3878 196.747 84.8589 196.747 85.394V92.2122H195.071ZM215.664 92.4678C214.973 92.4678 214.346 92.3376 213.782 92.0772C213.219 91.8121 212.771 91.4309 212.44 90.9337C212.108 90.4319 211.943 89.8258 211.943 89.1156C211.943 88.4906 212.066 87.9839 212.312 87.5957C212.558 87.2027 212.887 86.8949 213.299 86.6724C213.711 86.4498 214.166 86.2841 214.663 86.1752C215.165 86.0616 215.669 85.9716 216.176 85.9053C216.838 85.8201 217.376 85.7562 217.788 85.7136C218.204 85.6662 218.508 85.5881 218.697 85.4792C218.891 85.3703 218.988 85.1809 218.988 84.911V84.8542C218.988 84.1534 218.796 83.6089 218.413 83.2207C218.034 82.8324 217.459 82.6383 216.687 82.6383C215.887 82.6383 215.259 82.8135 214.805 83.1639C214.35 83.5142 214.031 83.8883 213.846 84.286L212.255 83.7178C212.539 83.055 212.918 82.5389 213.391 82.1695C213.87 81.7955 214.391 81.5351 214.954 81.3883C215.522 81.2368 216.081 81.161 216.63 81.161C216.981 81.161 217.383 81.2036 217.838 81.2889C218.297 81.3694 218.74 81.5374 219.166 81.7931C219.597 82.0488 219.954 82.4347 220.238 82.9508C220.522 83.4669 220.664 84.1582 220.664 85.0247V92.2122H218.988V90.7349H218.903C218.789 90.9716 218.6 91.2249 218.335 91.4948C218.07 91.7647 217.717 91.9944 217.276 92.1837C216.836 92.3731 216.299 92.4678 215.664 92.4678ZM215.92 90.9622C216.583 90.9622 217.141 90.8319 217.596 90.5715C218.055 90.3111 218.401 89.9749 218.633 89.563C218.87 89.1511 218.988 88.7178 218.988 88.2633V86.7292C218.917 86.8144 218.761 86.8926 218.519 86.9636C218.283 87.0299 218.008 87.0891 217.695 87.1411C217.388 87.1885 217.087 87.2311 216.793 87.269C216.505 87.3021 216.27 87.3305 216.09 87.3542C215.655 87.411 215.248 87.5034 214.869 87.6312C214.495 87.7543 214.192 87.9413 213.96 88.1923C213.732 88.4385 213.619 88.7747 213.619 89.2008C213.619 89.7832 213.834 90.2235 214.265 90.5218C214.701 90.8154 215.252 90.9622 215.92 90.9622ZM228.127 96.5303C227.317 96.5303 226.621 96.4262 226.039 96.2178C225.456 96.0142 224.971 95.7444 224.583 95.4082C224.199 95.0767 223.894 94.7216 223.667 94.3428L225.002 93.4053C225.153 93.6042 225.345 93.8315 225.577 94.0872C225.809 94.3476 226.126 94.5725 226.529 94.7619C226.936 94.956 227.469 95.0531 228.127 95.0531C229.008 95.0531 229.734 94.84 230.307 94.4139C230.88 93.9877 231.167 93.3201 231.167 92.411V90.1951H231.025C230.902 90.394 230.726 90.6402 230.499 90.9337C230.277 91.2226 229.955 91.4806 229.533 91.7079C229.117 91.9304 228.553 92.0417 227.843 92.0417C226.962 92.0417 226.171 91.8334 225.471 91.4167C224.775 91 224.223 90.394 223.816 89.5985C223.413 88.8031 223.212 87.8372 223.212 86.7008C223.212 85.5834 223.409 84.6104 223.802 83.7818C224.195 82.9484 224.742 82.3045 225.442 81.8499C226.143 81.3907 226.953 81.161 227.871 81.161C228.581 81.161 229.145 81.2794 229.562 81.5161C229.983 81.7481 230.305 82.0133 230.528 82.3116C230.755 82.6052 230.93 82.8466 231.053 83.036H231.224V81.3031H232.843V92.5247C232.843 93.4622 232.63 94.2245 232.204 94.8116C231.782 95.4034 231.214 95.8367 230.499 96.1113C229.789 96.3907 228.998 96.5303 228.127 96.5303ZM228.07 90.536C228.742 90.536 229.311 90.3821 229.775 90.0744C230.239 89.7666 230.591 89.3239 230.833 88.7462C231.074 88.1686 231.195 87.4773 231.195 86.6724C231.195 85.8864 231.077 85.1927 230.84 84.5914C230.603 83.9901 230.253 83.519 229.789 83.1781C229.325 82.8372 228.752 82.6667 228.07 82.6667C227.36 82.6667 226.768 82.8466 226.295 83.2065C225.826 83.5663 225.473 84.0493 225.236 84.6553C225.004 85.2614 224.888 85.9337 224.888 86.6724C224.888 87.43 225.007 88.0999 225.243 88.6823C225.485 89.26 225.84 89.7145 226.309 90.046C226.782 90.3727 227.369 90.536 228.07 90.536ZM240.485 92.4394C239.434 92.4394 238.527 92.2074 237.765 91.7434C237.007 91.2747 236.422 90.6212 236.01 89.7832C235.603 88.9404 235.4 87.9603 235.4 86.8428C235.4 85.7254 235.603 84.7406 236.01 83.8883C236.422 83.0313 236.995 82.3637 237.729 81.8855C238.468 81.4025 239.33 81.161 240.314 81.161C240.883 81.161 241.444 81.2557 241.998 81.4451C242.552 81.6345 243.056 81.9423 243.51 82.3684C243.965 82.7898 244.327 83.3485 244.597 84.0445C244.867 84.7406 245.002 85.5976 245.002 86.6156V87.3258H236.593V85.8769H243.297C243.297 85.2614 243.174 84.7122 242.928 84.2292C242.687 83.7462 242.341 83.3651 241.891 83.0857C241.446 82.8064 240.92 82.6667 240.314 82.6667C239.647 82.6667 239.069 82.8324 238.581 83.1639C238.099 83.4906 237.727 83.9167 237.466 84.4423C237.206 84.9678 237.076 85.5313 237.076 86.1326V87.0985C237.076 87.9224 237.218 88.6208 237.502 89.1937C237.791 89.7619 238.191 90.1951 238.702 90.4934C239.214 90.787 239.808 90.9337 240.485 90.9337C240.925 90.9337 241.323 90.8722 241.678 90.7491C242.038 90.6212 242.348 90.4319 242.608 90.1809C242.869 89.9252 243.07 89.608 243.212 89.2292L244.831 89.6837C244.661 90.233 244.375 90.7159 243.972 91.1326C243.57 91.5445 243.072 91.8665 242.481 92.0985C241.889 92.3258 241.224 92.4394 240.485 92.4394Z" fill="black"/>
<path d="M129.659 185.242H127.898C127.794 184.736 127.611 184.291 127.351 183.907C127.095 183.524 126.783 183.202 126.414 182.941C126.049 182.676 125.644 182.477 125.199 182.345C124.754 182.212 124.29 182.146 123.807 182.146C122.926 182.146 122.128 182.368 121.414 182.813C120.703 183.259 120.137 183.914 119.716 184.781C119.299 185.647 119.091 186.71 119.091 187.97C119.091 189.229 119.299 190.292 119.716 191.159C120.137 192.025 120.703 192.681 121.414 193.126C122.128 193.571 122.926 193.794 123.807 193.794C124.29 193.794 124.754 193.727 125.199 193.595C125.644 193.462 126.049 193.266 126.414 193.005C126.783 192.74 127.095 192.416 127.351 192.032C127.611 191.644 127.794 191.199 127.898 190.697H129.659C129.527 191.44 129.285 192.106 128.935 192.693C128.584 193.28 128.149 193.779 127.628 194.191C127.107 194.598 126.522 194.909 125.874 195.122C125.23 195.335 124.541 195.441 123.807 195.441C122.566 195.441 121.463 195.138 120.497 194.532C119.531 193.926 118.771 193.064 118.218 191.947C117.664 190.83 117.387 189.504 117.387 187.97C117.387 186.436 117.664 185.11 118.218 183.992C118.771 182.875 119.531 182.013 120.497 181.407C121.463 180.801 122.566 180.498 123.807 180.498C124.541 180.498 125.23 180.605 125.874 180.818C126.522 181.031 127.107 181.343 127.628 181.755C128.149 182.162 128.584 182.66 128.935 183.247C129.285 183.829 129.527 184.494 129.659 185.242ZM136.71 195.47C135.725 195.47 134.861 195.235 134.118 194.767C133.379 194.298 132.801 193.642 132.385 192.799C131.973 191.956 131.767 190.972 131.767 189.845C131.767 188.708 131.973 187.716 132.385 186.869C132.801 186.021 133.379 185.363 134.118 184.894C134.861 184.426 135.725 184.191 136.71 184.191C137.695 184.191 138.557 184.426 139.295 184.894C140.039 185.363 140.616 186.021 141.028 186.869C141.445 187.716 141.653 188.708 141.653 189.845C141.653 190.972 141.445 191.956 141.028 192.799C140.616 193.642 140.039 194.298 139.295 194.767C138.557 195.235 137.695 195.47 136.71 195.47ZM136.71 193.964C137.458 193.964 138.074 193.772 138.557 193.389C139.04 193.005 139.397 192.501 139.629 191.876C139.861 191.251 139.977 190.574 139.977 189.845C139.977 189.116 139.861 188.436 139.629 187.806C139.397 187.177 139.04 186.668 138.557 186.279C138.074 185.891 137.458 185.697 136.71 185.697C135.962 185.697 135.346 185.891 134.863 186.279C134.381 186.668 134.023 187.177 133.791 187.806C133.559 188.436 133.443 189.116 133.443 189.845C133.443 190.574 133.559 191.251 133.791 191.876C134.023 192.501 134.381 193.005 134.863 193.389C135.346 193.772 135.962 193.964 136.71 193.964ZM151.087 190.782V184.333H152.763V195.242H151.087V193.396H150.973C150.718 193.95 150.32 194.421 149.78 194.809C149.24 195.193 148.558 195.384 147.735 195.384C147.053 195.384 146.447 195.235 145.916 194.937C145.386 194.634 144.969 194.179 144.666 193.573C144.363 192.963 144.212 192.193 144.212 191.265V184.333H145.888V191.152C145.888 191.947 146.11 192.581 146.556 193.055C147.005 193.528 147.578 193.765 148.274 193.765C148.691 193.765 149.115 193.659 149.546 193.446C149.981 193.232 150.346 192.906 150.639 192.465C150.938 192.025 151.087 191.464 151.087 190.782ZM155.833 195.242V184.333H157.452V185.981H157.566C157.765 185.441 158.125 185.003 158.645 184.667C159.166 184.331 159.753 184.163 160.407 184.163C160.53 184.163 160.684 184.165 160.868 184.17C161.053 184.175 161.193 184.182 161.287 184.191V185.896C161.231 185.882 161.1 185.86 160.897 185.832C160.698 185.799 160.487 185.782 160.265 185.782C159.734 185.782 159.261 185.893 158.844 186.116C158.432 186.334 158.106 186.637 157.864 187.025C157.627 187.409 157.509 187.847 157.509 188.339V195.242H155.833ZM171.002 186.777L169.496 187.203C169.401 186.952 169.262 186.708 169.077 186.471C168.897 186.23 168.651 186.031 168.338 185.875C168.026 185.718 167.626 185.64 167.138 185.64C166.47 185.64 165.914 185.794 165.469 186.102C165.029 186.405 164.808 186.791 164.808 187.259C164.808 187.676 164.96 188.005 165.263 188.247C165.566 188.488 166.039 188.689 166.683 188.85L168.303 189.248C169.278 189.485 170.005 189.847 170.483 190.335C170.961 190.818 171.2 191.44 171.2 192.203C171.2 192.828 171.021 193.386 170.661 193.879C170.306 194.371 169.808 194.759 169.169 195.044C168.53 195.328 167.787 195.47 166.939 195.47C165.826 195.47 164.905 195.228 164.176 194.745C163.447 194.262 162.985 193.557 162.791 192.629L164.382 192.231C164.534 192.818 164.82 193.259 165.242 193.552C165.668 193.846 166.224 193.992 166.911 193.992C167.692 193.992 168.312 193.827 168.771 193.495C169.235 193.159 169.468 192.757 169.468 192.288C169.468 191.909 169.335 191.592 169.07 191.336C168.805 191.076 168.397 190.882 167.848 190.754L166.03 190.328C165.031 190.091 164.297 189.724 163.828 189.227C163.364 188.725 163.132 188.098 163.132 187.345C163.132 186.729 163.305 186.185 163.651 185.711C164.001 185.238 164.477 184.866 165.078 184.596C165.684 184.326 166.371 184.191 167.138 184.191C168.218 184.191 169.065 184.428 169.681 184.902C170.301 185.375 170.741 186 171.002 186.777ZM178.297 195.47C177.246 195.47 176.34 195.238 175.577 194.774C174.82 194.305 174.235 193.652 173.823 192.813C173.416 191.971 173.212 190.991 173.212 189.873C173.212 188.756 173.416 187.771 173.823 186.919C174.235 186.062 174.808 185.394 175.542 184.916C176.28 184.433 177.142 184.191 178.127 184.191C178.695 184.191 179.256 184.286 179.81 184.475C180.364 184.665 180.868 184.973 181.323 185.399C181.778 185.82 182.14 186.379 182.41 187.075C182.68 187.771 182.814 188.628 182.814 189.646V190.356H174.405V188.907H181.11C181.11 188.292 180.987 187.742 180.741 187.259C180.499 186.777 180.153 186.395 179.704 186.116C179.259 185.837 178.733 185.697 178.127 185.697C177.459 185.697 176.882 185.863 176.394 186.194C175.911 186.521 175.539 186.947 175.279 187.473C175.019 187.998 174.888 188.562 174.888 189.163V190.129C174.888 190.953 175.03 191.651 175.314 192.224C175.603 192.792 176.003 193.225 176.515 193.524C177.026 193.817 177.62 193.964 178.297 193.964C178.738 193.964 179.135 193.902 179.491 193.779C179.85 193.652 180.161 193.462 180.421 193.211C180.681 192.955 180.883 192.638 181.025 192.259L182.644 192.714C182.474 193.263 182.187 193.746 181.785 194.163C181.382 194.575 180.885 194.897 180.293 195.129C179.701 195.356 179.036 195.47 178.297 195.47ZM202.751 180.697V195.242H201.046L193.12 183.822H192.978V195.242H191.216V180.697H192.921L200.876 192.146H201.018V180.697H202.751ZM209.258 195.498C208.567 195.498 207.939 195.368 207.376 195.107C206.812 194.842 206.365 194.461 206.034 193.964C205.702 193.462 205.536 192.856 205.536 192.146C205.536 191.521 205.66 191.014 205.906 190.626C206.152 190.233 206.481 189.925 206.893 189.703C207.305 189.48 207.759 189.314 208.257 189.205C208.758 189.092 209.263 189.002 209.769 188.936C210.432 188.85 210.97 188.786 211.382 188.744C211.798 188.697 212.101 188.618 212.291 188.509C212.485 188.401 212.582 188.211 212.582 187.941V187.884C212.582 187.184 212.39 186.639 212.007 186.251C211.628 185.863 211.052 185.669 210.281 185.669C209.481 185.669 208.853 185.844 208.399 186.194C207.944 186.545 207.624 186.919 207.44 187.316L205.849 186.748C206.133 186.085 206.512 185.569 206.985 185.2C207.463 184.826 207.984 184.565 208.548 184.419C209.116 184.267 209.675 184.191 210.224 184.191C210.574 184.191 210.977 184.234 211.431 184.319C211.891 184.4 212.333 184.568 212.759 184.823C213.19 185.079 213.548 185.465 213.832 185.981C214.116 186.497 214.258 187.188 214.258 188.055V195.242H212.582V193.765H212.497C212.383 194.002 212.194 194.255 211.928 194.525C211.663 194.795 211.311 195.025 210.87 195.214C210.43 195.403 209.892 195.498 209.258 195.498ZM209.514 193.992C210.177 193.992 210.735 193.862 211.19 193.602C211.649 193.341 211.995 193.005 212.227 192.593C212.463 192.181 212.582 191.748 212.582 191.294V189.759C212.511 189.845 212.355 189.923 212.113 189.994C211.876 190.06 211.602 190.119 211.289 190.171C210.981 190.219 210.681 190.261 210.387 190.299C210.098 190.332 209.864 190.361 209.684 190.384C209.249 190.441 208.841 190.534 208.463 190.661C208.088 190.785 207.785 190.972 207.553 191.223C207.326 191.469 207.213 191.805 207.213 192.231C207.213 192.813 207.428 193.254 207.859 193.552C208.294 193.846 208.846 193.992 209.514 193.992ZM217.317 195.242V184.333H218.937V186.038H219.079C219.306 185.455 219.673 185.003 220.18 184.681C220.686 184.355 221.295 184.191 222.005 184.191C222.724 184.191 223.323 184.355 223.802 184.681C224.285 185.003 224.661 185.455 224.931 186.038H225.045C225.324 185.474 225.743 185.027 226.302 184.696C226.86 184.359 227.53 184.191 228.312 184.191C229.287 184.191 230.085 184.497 230.705 185.107C231.325 185.714 231.635 186.658 231.635 187.941V195.242H229.959V187.941C229.959 187.136 229.739 186.561 229.299 186.215C228.858 185.87 228.34 185.697 227.743 185.697C226.976 185.697 226.382 185.929 225.961 186.393C225.539 186.852 225.329 187.435 225.329 188.14V195.242H223.624V187.771C223.624 187.151 223.423 186.651 223.02 186.272C222.618 185.889 222.099 185.697 221.465 185.697C221.029 185.697 220.622 185.813 220.243 186.045C219.869 186.277 219.566 186.599 219.334 187.011C219.107 187.418 218.993 187.889 218.993 188.424V195.242H217.317ZM239.274 195.47C238.223 195.47 237.316 195.238 236.554 194.774C235.796 194.305 235.211 193.652 234.8 192.813C234.392 191.971 234.189 190.991 234.189 189.873C234.189 188.756 234.392 187.771 234.8 186.919C235.211 186.062 235.784 185.394 236.518 184.916C237.257 184.433 238.119 184.191 239.104 184.191C239.672 184.191 240.233 184.286 240.787 184.475C241.341 184.665 241.845 184.973 242.3 185.399C242.754 185.82 243.116 186.379 243.386 187.075C243.656 187.771 243.791 188.628 243.791 189.646V190.356H235.382V188.907H242.086C242.086 188.292 241.963 187.742 241.717 187.259C241.476 186.777 241.13 186.395 240.68 186.116C240.235 185.837 239.71 185.697 239.104 185.697C238.436 185.697 237.858 185.863 237.371 186.194C236.888 186.521 236.516 186.947 236.256 187.473C235.995 187.998 235.865 188.562 235.865 189.163V190.129C235.865 190.953 236.007 191.651 236.291 192.224C236.58 192.792 236.98 193.225 237.491 193.524C238.003 193.817 238.597 193.964 239.274 193.964C239.714 193.964 240.112 193.902 240.467 193.779C240.827 193.652 241.137 193.462 241.398 193.211C241.658 192.955 241.859 192.638 242.001 192.259L243.621 192.714C243.45 193.263 243.164 193.746 242.761 194.163C242.359 194.575 241.862 194.897 241.27 195.129C240.678 195.356 240.013 195.47 239.274 195.47Z" fill="black"/>
</g>
<defs>
<filter id="filter0_d_43_395" x="0" y="0" width="357" height="237" filterUnits="userSpaceOnUse" color-interpolation-filters="sRGB">
<feFlood flood-opacity="0" result="BackgroundImageFix"/>
<feColorMatrix in="SourceAlpha" type="matrix" values="0 0 0 0 0 0 0 0 0 0 0 0 0 0 0 0 0 0 127 0" result="hardAlpha"/>
<feOffset dx="-2" dy="4"/>
<feGaussianBlur stdDeviation="2"/>
<feComposite in2="hardAlpha" operator="out"/>
<feColorMatrix type="matrix" values="0 0 0 0 0 0 0 0 0 0 0 0 0 0 0 0 0 0 0.25 0"/>
<feBlend mode="normal" in2="BackgroundImageFix" result="effect1_dropShadow_43_395"/>
<feBlend mode="normal" in="SourceGraphic" in2="effect1_dropShadow_43_395" result="shape"/>
</filter>
</defs>
</svg>
