<svg width="675" height="105" viewBox="0 0 675 105" fill="none" xmlns="http://www.w3.org/2000/svg">
<g filter="url(#filter0_d_138_372)">
<mask id="path-1-outside-1_138_372" maskUnits="userSpaceOnUse" x="7" y="7" width="661" height="90" fill="black">
<rect fill="white" x="7" y="7" width="661" height="90"/>
<path d="M10 10H665V94H10V10Z"/>
<path d="M75.5206 65.228C73.2152 65.228 71.1759 64.734 69.4026 63.746C67.6292 62.758 66.2359 61.4027 65.2226 59.68C64.2346 57.932 63.7406 55.9687 63.7406 53.79V38.362H67.8446V53.524C67.8446 54.9933 68.1866 56.3107 68.8706 57.476C69.5799 58.6413 70.5046 59.566 71.6446 60.25C72.8099 60.934 74.1019 61.276 75.5206 61.276C77.0152 61.276 78.3452 60.934 79.5106 60.25C80.7012 59.566 81.6386 58.6413 82.3226 57.476C83.0319 56.3107 83.3866 54.9933 83.3866 53.524V38.362H87.3006V53.79C87.3006 55.9687 86.7939 57.932 85.7806 59.68C84.7926 61.4027 83.4119 62.758 81.6386 63.746C79.8652 64.734 77.8259 65.228 75.5206 65.228Z"/>
<path d="M96.8882 73.36V45.05H100.84V49.61L100.232 49.268C100.409 48.5333 100.891 47.824 101.676 47.14C102.487 46.4307 103.475 45.848 104.64 45.392C105.831 44.936 107.072 44.708 108.364 44.708C110.416 44.708 112.215 45.1513 113.76 46.038C115.305 46.9247 116.521 48.1407 117.408 49.686C118.295 51.2313 118.738 53.0047 118.738 55.006C118.738 56.982 118.295 58.7553 117.408 60.326C116.547 61.8713 115.331 63.1 113.76 64.012C112.215 64.8987 110.454 65.342 108.478 65.342C107.085 65.342 105.767 65.1013 104.526 64.62C103.285 64.1133 102.246 63.4927 101.41 62.758C100.574 62.0233 100.055 61.2887 99.8522 60.554L100.84 60.022V73.36H96.8882ZM107.832 61.732C109.225 61.732 110.454 61.4407 111.518 60.858C112.582 60.2753 113.418 59.4773 114.026 58.464C114.659 57.4507 114.976 56.298 114.976 55.006C114.976 53.714 114.672 52.574 114.064 51.586C113.456 50.5727 112.62 49.7747 111.556 49.192C110.492 48.6093 109.251 48.318 107.832 48.318C106.439 48.318 105.197 48.6093 104.108 49.192C103.044 49.7493 102.195 50.5347 101.562 51.548C100.954 52.5613 100.65 53.714 100.65 55.006C100.65 56.298 100.954 57.4507 101.562 58.464C102.195 59.4773 103.044 60.2753 104.108 60.858C105.197 61.4407 106.439 61.732 107.832 61.732Z"/>
<path d="M126.499 65V36.88H130.413V65H126.499Z"/>
<path d="M149.245 65.38C147.041 65.38 145.078 64.9367 143.355 64.05C141.658 63.138 140.315 61.9093 139.327 60.364C138.339 58.7933 137.845 57.0073 137.845 55.006C137.845 53.0047 138.339 51.2313 139.327 49.686C140.315 48.1153 141.658 46.8867 143.355 46C145.078 45.088 147.041 44.632 149.245 44.632C151.424 44.632 153.362 45.088 155.059 46C156.782 46.8867 158.137 48.1153 159.125 49.686C160.113 51.2313 160.607 53.0047 160.607 55.006C160.607 57.0073 160.113 58.7933 159.125 60.364C158.137 61.9093 156.782 63.138 155.059 64.05C153.362 64.9367 151.424 65.38 149.245 65.38ZM149.245 61.808C150.638 61.808 151.892 61.5167 153.007 60.934C154.147 60.326 155.034 59.5153 155.667 58.502C156.326 57.4633 156.642 56.298 156.617 55.006C156.642 53.6887 156.326 52.5233 155.667 51.51C155.034 50.4713 154.147 49.6607 153.007 49.078C151.892 48.4953 150.638 48.204 149.245 48.204C147.852 48.204 146.585 48.508 145.445 49.116C144.305 49.6987 143.406 50.4967 142.747 51.51C142.114 52.5233 141.81 53.6887 141.835 55.006C141.81 56.298 142.114 57.4633 142.747 58.502C143.406 59.5153 144.305 60.326 145.445 60.934C146.585 61.5167 147.852 61.808 149.245 61.808Z"/>
<path d="M176.3 65.38C174.349 65.38 172.614 64.9367 171.094 64.05C169.574 63.138 168.371 61.8967 167.484 60.326C166.623 58.7553 166.192 56.9693 166.192 54.968C166.192 52.9667 166.635 51.1933 167.522 49.648C168.434 48.0773 169.675 46.8487 171.246 45.962C172.817 45.0753 174.603 44.632 176.604 44.632C177.82 44.632 178.935 44.7967 179.948 45.126C180.987 45.43 181.886 45.8607 182.646 46.418C183.406 46.9753 184.014 47.596 184.47 48.28C184.926 48.9387 185.179 49.6353 185.23 50.37L184.28 50.218V45.05H188.194V65H184.28V59.946L185.116 59.908C185.015 60.5413 184.711 61.1873 184.204 61.846C183.723 62.4793 183.064 63.062 182.228 63.594C181.417 64.126 180.505 64.5567 179.492 64.886C178.479 65.2153 177.415 65.38 176.3 65.38ZM177.288 61.77C178.681 61.77 179.91 61.4787 180.974 60.896C182.063 60.3133 182.912 59.5153 183.52 58.502C184.128 57.4633 184.432 56.2853 184.432 54.968C184.432 53.7013 184.128 52.5613 183.52 51.548C182.912 50.5347 182.063 49.7367 180.974 49.154C179.91 48.546 178.681 48.242 177.288 48.242C175.895 48.242 174.666 48.546 173.602 49.154C172.538 49.7367 171.702 50.5347 171.094 51.548C170.486 52.5613 170.182 53.7013 170.182 54.968C170.182 56.2853 170.486 57.4633 171.094 58.502C171.702 59.5153 172.538 60.3133 173.602 60.896C174.666 61.4787 175.895 61.77 177.288 61.77Z"/>
<path d="M206.071 65.38C204.019 65.38 202.207 64.9367 200.637 64.05C199.066 63.138 197.837 61.9093 196.951 60.364C196.064 58.7933 195.621 57.0073 195.621 55.006C195.621 53.0047 196.064 51.2313 196.951 49.686C197.863 48.1153 199.104 46.8867 200.675 46C202.271 45.088 204.082 44.632 206.109 44.632C207.299 44.632 208.414 44.7967 209.453 45.126C210.517 45.4553 211.454 45.8987 212.265 46.456C213.101 46.988 213.747 47.5833 214.203 48.242C214.659 48.8753 214.887 49.5087 214.887 50.142L213.747 50.218V36.88H217.661V65H213.747V59.946L214.507 60.06C214.507 60.668 214.266 61.276 213.785 61.884C213.329 62.492 212.708 63.062 211.923 63.594C211.137 64.126 210.238 64.5567 209.225 64.886C208.211 65.2153 207.16 65.38 206.071 65.38ZM206.755 61.922C208.148 61.922 209.377 61.618 210.441 61.01C211.53 60.402 212.379 59.5787 212.987 58.54C213.595 57.5013 213.899 56.3233 213.899 55.006C213.899 53.6887 213.595 52.5107 212.987 51.472C212.379 50.4333 211.53 49.6227 210.441 49.04C209.377 48.432 208.148 48.128 206.755 48.128C205.361 48.128 204.12 48.432 203.031 49.04C201.967 49.6227 201.131 50.4333 200.523 51.472C199.915 52.5107 199.611 53.6887 199.611 55.006C199.611 56.3233 199.915 57.5013 200.523 58.54C201.131 59.5787 201.967 60.402 203.031 61.01C204.12 61.618 205.361 61.922 206.755 61.922Z"/>
<path d="M240.762 65V38.4H244.6L262.992 60.174L262.536 60.516C262.409 59.832 262.308 59.0973 262.232 58.312C262.156 57.5013 262.08 56.6653 262.004 55.804C261.953 54.9173 261.903 54.0053 261.852 53.068C261.827 52.1053 261.801 51.13 261.776 50.142C261.776 49.154 261.776 48.1533 261.776 47.14V38.4H265.88V65H261.966L243.84 44.024L244.106 43.492C244.182 44.6067 244.258 45.62 244.334 46.532C244.41 47.4187 244.486 48.2293 244.562 48.964C244.638 49.6987 244.689 50.37 244.714 50.978C244.765 51.5607 244.803 52.1053 244.828 52.612C244.853 53.0933 244.866 53.5367 244.866 53.942V65H240.762Z"/>
<path d="M285.33 65.38C283.05 65.38 281.023 64.9493 279.25 64.088C277.476 63.2013 276.083 61.998 275.07 60.478C274.082 58.958 273.588 57.21 273.588 55.234C273.588 53.6127 273.879 52.156 274.462 50.864C275.044 49.572 275.842 48.4573 276.856 47.52C277.894 46.5827 279.11 45.8607 280.504 45.354C281.897 44.8473 283.392 44.594 284.988 44.594C286.432 44.594 287.774 44.8347 289.016 45.316C290.282 45.7973 291.384 46.4687 292.322 47.33C293.259 48.1913 293.981 49.2173 294.488 50.408C295.02 51.5733 295.273 52.8653 295.248 54.284L295.21 56.108H276.78L275.906 52.992H291.828L291.258 53.486V52.574C291.156 51.738 290.802 50.9907 290.194 50.332C289.586 49.6733 288.826 49.154 287.914 48.774C287.002 48.394 286.026 48.204 284.988 48.204C283.468 48.204 282.138 48.4447 280.998 48.926C279.883 49.4073 279.009 50.1547 278.376 51.168C277.768 52.156 277.464 53.4227 277.464 54.968C277.464 56.3613 277.818 57.5647 278.528 58.578C279.237 59.5913 280.225 60.3767 281.492 60.934C282.758 61.4913 284.215 61.77 285.862 61.77C287.28 61.77 288.509 61.5673 289.548 61.162C290.586 60.7567 291.574 60.1993 292.512 59.49L294.374 62.34C293.715 62.8973 292.892 63.4167 291.904 63.898C290.916 64.354 289.852 64.7213 288.712 65C287.597 65.2533 286.47 65.38 285.33 65.38Z"/>
<path d="M306.795 65L299.765 45.05L303.869 45.012L308.771 60.25L307.897 60.174L313.483 48.204H316.257L321.919 60.212L321.045 60.288L326.365 45.05H330.317L323.059 65H320.361L314.015 51.282L315.649 51.168L309.455 65H306.795Z"/>
<path d="M347.863 65L359.225 38.4H363.671L374.957 65H370.511L363.291 48.052C363.164 47.748 362.987 47.3047 362.759 46.722C362.556 46.114 362.328 45.468 362.075 44.784C361.821 44.1 361.581 43.454 361.353 42.846C361.125 42.2127 360.947 41.7187 360.821 41.364L361.847 41.326C361.669 41.8327 361.467 42.39 361.239 42.998C361.036 43.606 360.808 44.2267 360.555 44.86C360.327 45.4933 360.099 46.1013 359.871 46.684C359.643 47.2413 359.44 47.748 359.263 48.204L352.081 65H347.863ZM352.841 58.54L354.437 54.588H367.965L369.295 58.54H352.841Z"/>
<path d="M388.917 65.38C386.992 65.38 385.231 65.0887 383.635 64.506C382.065 63.9233 380.747 63.0113 379.683 61.77L382.343 59.414C383.205 60.326 384.18 61.01 385.269 61.466C386.384 61.922 387.613 62.15 388.955 62.15C389.487 62.15 390.019 62.0993 390.551 61.998C391.083 61.8967 391.565 61.7447 391.995 61.542C392.426 61.3393 392.768 61.0733 393.021 60.744C393.275 60.4147 393.401 60.0347 393.401 59.604C393.401 58.8693 392.971 58.2993 392.109 57.894C391.653 57.7167 391.096 57.5267 390.437 57.324C389.779 57.1213 389.006 56.9313 388.119 56.754C386.625 56.4247 385.333 56.0573 384.243 55.652C383.154 55.2213 382.28 54.702 381.621 54.094C381.14 53.6127 380.773 53.068 380.519 52.46C380.291 51.852 380.177 51.1553 380.177 50.37C380.177 49.534 380.38 48.7613 380.785 48.052C381.216 47.3427 381.811 46.7347 382.571 46.228C383.331 45.7213 384.218 45.3287 385.231 45.05C386.245 44.7713 387.334 44.632 388.499 44.632C389.538 44.632 390.589 44.7587 391.653 45.012C392.743 45.24 393.756 45.5947 394.693 46.076C395.656 46.532 396.454 47.1147 397.087 47.824L394.921 50.37C394.339 49.8887 393.68 49.458 392.945 49.078C392.236 48.698 391.501 48.4067 390.741 48.204C389.981 47.976 389.272 47.862 388.613 47.862C388.056 47.862 387.499 47.9127 386.941 48.014C386.384 48.09 385.89 48.2293 385.459 48.432C385.054 48.6093 384.725 48.85 384.471 49.154C384.218 49.458 384.091 49.8253 384.091 50.256C384.091 50.5853 384.167 50.8893 384.319 51.168C384.497 51.4213 384.725 51.6493 385.003 51.852C385.434 52.1307 386.017 52.384 386.751 52.612C387.486 52.84 388.36 53.0553 389.373 53.258C390.691 53.5367 391.856 53.866 392.869 54.246C393.908 54.6007 394.769 55.044 395.453 55.576C396.036 56.0067 396.467 56.526 396.745 57.134C397.049 57.742 397.201 58.4387 397.201 59.224C397.201 60.4653 396.821 61.5547 396.061 62.492C395.327 63.404 394.339 64.1133 393.097 64.62C391.856 65.1267 390.463 65.38 388.917 65.38Z"/>
<path d="M411.962 65.38C410.037 65.38 408.276 65.0887 406.68 64.506C405.109 63.9233 403.792 63.0113 402.728 61.77L405.388 59.414C406.25 60.326 407.225 61.01 408.314 61.466C409.429 61.922 410.658 62.15 412 62.15C412.532 62.15 413.064 62.0993 413.596 61.998C414.128 61.8967 414.61 61.7447 415.04 61.542C415.471 61.3393 415.813 61.0733 416.066 60.744C416.32 60.4147 416.446 60.0347 416.446 59.604C416.446 58.8693 416.016 58.2993 415.154 57.894C414.698 57.7167 414.141 57.5267 413.482 57.324C412.824 57.1213 412.051 56.9313 411.164 56.754C409.67 56.4247 408.378 56.0573 407.288 55.652C406.199 55.2213 405.325 54.702 404.666 54.094C404.185 53.6127 403.818 53.068 403.564 52.46C403.336 51.852 403.222 51.1553 403.222 50.37C403.222 49.534 403.425 48.7613 403.83 48.052C404.261 47.3427 404.856 46.7347 405.616 46.228C406.376 45.7213 407.263 45.3287 408.276 45.05C409.29 44.7713 410.379 44.632 411.544 44.632C412.583 44.632 413.634 44.7587 414.698 45.012C415.788 45.24 416.801 45.5947 417.738 46.076C418.701 46.532 419.499 47.1147 420.132 47.824L417.966 50.37C417.384 49.8887 416.725 49.458 415.99 49.078C415.281 48.698 414.546 48.4067 413.786 48.204C413.026 47.976 412.317 47.862 411.658 47.862C411.101 47.862 410.544 47.9127 409.986 48.014C409.429 48.09 408.935 48.2293 408.504 48.432C408.099 48.6093 407.77 48.85 407.516 49.154C407.263 49.458 407.136 49.8253 407.136 50.256C407.136 50.5853 407.212 50.8893 407.364 51.168C407.542 51.4213 407.77 51.6493 408.048 51.852C408.479 52.1307 409.061 52.384 409.796 52.612C410.531 52.84 411.405 53.0553 412.418 53.258C413.736 53.5367 414.901 53.866 415.914 54.246C416.953 54.6007 417.814 55.044 418.498 55.576C419.081 56.0067 419.512 56.526 419.79 57.134C420.094 57.742 420.246 58.4387 420.246 59.224C420.246 60.4653 419.866 61.5547 419.106 62.492C418.372 63.404 417.384 64.1133 416.142 64.62C414.901 65.1267 413.508 65.38 411.962 65.38Z"/>
<path d="M428.395 65V45.05H432.309V65H428.395ZM430.295 40.49C429.459 40.49 428.813 40.2747 428.357 39.844C427.901 39.4133 427.673 38.8053 427.673 38.02C427.673 37.2853 427.901 36.69 428.357 36.234C428.838 35.778 429.484 35.55 430.295 35.55C431.131 35.55 431.777 35.7653 432.233 36.196C432.689 36.6267 432.917 37.2347 432.917 38.02C432.917 38.7547 432.676 39.35 432.195 39.806C431.739 40.262 431.106 40.49 430.295 40.49Z"/>
<path d="M452.139 73.74C450.366 73.74 448.732 73.512 447.237 73.056C445.742 72.6 444.539 72.03 443.627 71.346L445.033 68.23C445.565 68.5593 446.198 68.876 446.933 69.18C447.668 69.484 448.478 69.7373 449.365 69.94C450.252 70.1427 451.176 70.244 452.139 70.244C453.558 70.244 454.774 69.9907 455.787 69.484C456.8 68.9773 457.586 68.23 458.143 67.242C458.7 66.254 458.979 65.0507 458.979 63.632V60.402L459.397 60.668C459.245 61.428 458.751 62.1753 457.915 62.91C457.104 63.6193 456.078 64.2147 454.837 64.696C453.621 65.152 452.342 65.38 450.999 65.38C448.947 65.38 447.123 64.9367 445.527 64.05C443.956 63.138 442.715 61.9093 441.803 60.364C440.891 58.7933 440.435 57.0073 440.435 55.006C440.435 53.0047 440.891 51.2313 441.803 49.686C442.74 48.1153 444.02 46.8867 445.641 46C447.262 45.088 449.112 44.632 451.189 44.632C451.873 44.632 452.595 44.7207 453.355 44.898C454.14 45.0753 454.9 45.3287 455.635 45.658C456.37 45.962 457.041 46.3167 457.649 46.722C458.257 47.1273 458.751 47.5707 459.131 48.052C459.536 48.508 459.764 48.964 459.815 49.42L458.979 49.724V45.05H462.893V63.176C462.893 64.924 462.614 66.444 462.057 67.736C461.525 69.0533 460.778 70.1553 459.815 71.042C458.852 71.9287 457.712 72.6 456.395 73.056C455.078 73.512 453.659 73.74 452.139 73.74ZM451.873 61.77C453.292 61.77 454.546 61.4787 455.635 60.896C456.75 60.3133 457.611 59.5153 458.219 58.502C458.827 57.4887 459.131 56.3233 459.131 55.006C459.131 53.6887 458.814 52.5233 458.181 51.51C457.573 50.4713 456.724 49.6607 455.635 49.078C454.546 48.4953 453.292 48.204 451.873 48.204C450.429 48.204 449.15 48.508 448.035 49.116C446.92 49.6987 446.034 50.5093 445.375 51.548C444.742 52.5613 444.425 53.714 444.425 55.006C444.425 56.298 444.742 57.4633 445.375 58.502C446.034 59.5153 446.92 60.3133 448.035 60.896C449.15 61.4787 450.429 61.77 451.873 61.77Z"/>
<path d="M472.546 65V45.05H476.46V49.762L475.472 50.066C475.852 49.154 476.448 48.2927 477.258 47.482C478.069 46.646 479.032 45.962 480.146 45.43C481.286 44.898 482.49 44.632 483.756 44.632C485.504 44.632 486.961 44.974 488.126 45.658C489.317 46.3167 490.204 47.2667 490.786 48.508C491.369 49.7493 491.66 51.244 491.66 52.992V65H487.746V53.41C487.746 52.27 487.531 51.32 487.1 50.56C486.695 49.7747 486.1 49.192 485.314 48.812C484.554 48.4067 483.655 48.2167 482.616 48.242C481.73 48.242 480.906 48.394 480.146 48.698C479.412 49.002 478.766 49.4073 478.208 49.914C477.651 50.4207 477.22 50.9907 476.916 51.624C476.612 52.232 476.46 52.8653 476.46 53.524V65H474.522C474.066 65 473.674 65 473.344 65C473.015 65 472.749 65 472.546 65Z"/>
<path d="M501.187 65V45.05H505.139V49.914L504.113 50.066C504.315 49.458 504.67 48.8373 505.177 48.204C505.683 47.5707 506.317 47.0007 507.077 46.494C507.837 45.962 508.673 45.5313 509.585 45.202C510.522 44.8727 511.523 44.708 512.587 44.708C513.828 44.708 514.943 44.9107 515.931 45.316C516.919 45.7213 517.717 46.342 518.325 47.178C518.958 48.014 519.376 49.0527 519.579 50.294L518.667 50.066L518.933 49.42C519.237 48.888 519.655 48.356 520.187 47.824C520.744 47.2667 521.39 46.76 522.125 46.304C522.885 45.8227 523.695 45.4427 524.557 45.164C525.418 44.86 526.305 44.708 527.217 44.708C528.99 44.708 530.421 45.05 531.511 45.734C532.6 46.418 533.398 47.3933 533.905 48.66C534.411 49.9267 534.665 51.434 534.665 53.182V65H530.713V53.562C530.713 52.422 530.548 51.472 530.219 50.712C529.915 49.9267 529.433 49.3313 528.775 48.926C528.116 48.5207 527.255 48.318 526.191 48.318C525.304 48.318 524.468 48.47 523.683 48.774C522.923 49.0527 522.251 49.458 521.669 49.99C521.086 50.4967 520.63 51.092 520.301 51.776C519.997 52.46 519.845 53.1947 519.845 53.98V65H515.893V53.486C515.893 52.422 515.715 51.51 515.361 50.75C515.006 49.9647 514.474 49.3693 513.765 48.964C513.055 48.5333 512.156 48.318 511.067 48.318C510.205 48.318 509.42 48.47 508.711 48.774C508.001 49.078 507.368 49.4833 506.811 49.99C506.279 50.4967 505.861 51.0667 505.557 51.7C505.278 52.308 505.139 52.9413 505.139 53.6V65H501.187Z"/>
<path d="M553.705 65.38C551.425 65.38 549.398 64.9493 547.625 64.088C545.851 63.2013 544.458 61.998 543.445 60.478C542.457 58.958 541.963 57.21 541.963 55.234C541.963 53.6127 542.254 52.156 542.837 50.864C543.419 49.572 544.217 48.4573 545.231 47.52C546.269 46.5827 547.485 45.8607 548.879 45.354C550.272 44.8473 551.767 44.594 553.363 44.594C554.807 44.594 556.149 44.8347 557.391 45.316C558.657 45.7973 559.759 46.4687 560.697 47.33C561.634 48.1913 562.356 49.2173 562.863 50.408C563.395 51.5733 563.648 52.8653 563.623 54.284L563.585 56.108H545.155L544.281 52.992H560.203L559.633 53.486V52.574C559.531 51.738 559.177 50.9907 558.569 50.332C557.961 49.6733 557.201 49.154 556.289 48.774C555.377 48.394 554.401 48.204 553.363 48.204C551.843 48.204 550.513 48.4447 549.373 48.926C548.258 49.4073 547.384 50.1547 546.751 51.168C546.143 52.156 545.839 53.4227 545.839 54.968C545.839 56.3613 546.193 57.5647 546.903 58.578C547.612 59.5913 548.6 60.3767 549.867 60.934C551.133 61.4913 552.59 61.77 554.237 61.77C555.655 61.77 556.884 61.5673 557.923 61.162C558.961 60.7567 559.949 60.1993 560.887 59.49L562.749 62.34C562.09 62.8973 561.267 63.4167 560.279 63.898C559.291 64.354 558.227 64.7213 557.087 65C555.972 65.2533 554.845 65.38 553.705 65.38Z"/>
<path d="M571.703 65V45.05H575.617V49.762L574.629 50.066C575.009 49.154 575.604 48.2927 576.415 47.482C577.225 46.646 578.188 45.962 579.303 45.43C580.443 44.898 581.646 44.632 582.913 44.632C584.661 44.632 586.117 44.974 587.283 45.658C588.473 46.3167 589.36 47.2667 589.943 48.508C590.525 49.7493 590.817 51.244 590.817 52.992V65H586.903V53.41C586.903 52.27 586.687 51.32 586.257 50.56C585.851 49.7747 585.256 49.192 584.471 48.812C583.711 48.4067 582.811 48.2167 581.773 48.242C580.886 48.242 580.063 48.394 579.303 48.698C578.568 49.002 577.922 49.4073 577.365 49.914C576.807 50.4207 576.377 50.9907 576.073 51.624C575.769 52.232 575.617 52.8653 575.617 53.524V65H573.679C573.223 65 572.83 65 572.501 65C572.171 65 571.905 65 571.703 65Z"/>
<path d="M603.307 65V39.502H607.221V65H603.307ZM598.253 48.85V45.05H613.073V48.85H598.253Z"/>
</mask>
<path d="M10 10H665V94H10V10Z" fill="#E69A64"/>
<path d="M75.5206 65.228C73.2152 65.228 71.1759 64.734 69.4026 63.746C67.6292 62.758 66.2359 61.4027 65.2226 59.68C64.2346 57.932 63.7406 55.9687 63.7406 53.79V38.362H67.8446V53.524C67.8446 54.9933 68.1866 56.3107 68.8706 57.476C69.5799 58.6413 70.5046 59.566 71.6446 60.25C72.8099 60.934 74.1019 61.276 75.5206 61.276C77.0152 61.276 78.3452 60.934 79.5106 60.25C80.7012 59.566 81.6386 58.6413 82.3226 57.476C83.0319 56.3107 83.3866 54.9933 83.3866 53.524V38.362H87.3006V53.79C87.3006 55.9687 86.7939 57.932 85.7806 59.68C84.7926 61.4027 83.4119 62.758 81.6386 63.746C79.8652 64.734 77.8259 65.228 75.5206 65.228Z" fill="black"/>
<path d="M96.8882 73.36V45.05H100.84V49.61L100.232 49.268C100.409 48.5333 100.891 47.824 101.676 47.14C102.487 46.4307 103.475 45.848 104.64 45.392C105.831 44.936 107.072 44.708 108.364 44.708C110.416 44.708 112.215 45.1513 113.76 46.038C115.305 46.9247 116.521 48.1407 117.408 49.686C118.295 51.2313 118.738 53.0047 118.738 55.006C118.738 56.982 118.295 58.7553 117.408 60.326C116.547 61.8713 115.331 63.1 113.76 64.012C112.215 64.8987 110.454 65.342 108.478 65.342C107.085 65.342 105.767 65.1013 104.526 64.62C103.285 64.1133 102.246 63.4927 101.41 62.758C100.574 62.0233 100.055 61.2887 99.8522 60.554L100.84 60.022V73.36H96.8882ZM107.832 61.732C109.225 61.732 110.454 61.4407 111.518 60.858C112.582 60.2753 113.418 59.4773 114.026 58.464C114.659 57.4507 114.976 56.298 114.976 55.006C114.976 53.714 114.672 52.574 114.064 51.586C113.456 50.5727 112.62 49.7747 111.556 49.192C110.492 48.6093 109.251 48.318 107.832 48.318C106.439 48.318 105.197 48.6093 104.108 49.192C103.044 49.7493 102.195 50.5347 101.562 51.548C100.954 52.5613 100.65 53.714 100.65 55.006C100.65 56.298 100.954 57.4507 101.562 58.464C102.195 59.4773 103.044 60.2753 104.108 60.858C105.197 61.4407 106.439 61.732 107.832 61.732Z" fill="black"/>
<path d="M126.499 65V36.88H130.413V65H126.499Z" fill="black"/>
<path d="M149.245 65.38C147.041 65.38 145.078 64.9367 143.355 64.05C141.658 63.138 140.315 61.9093 139.327 60.364C138.339 58.7933 137.845 57.0073 137.845 55.006C137.845 53.0047 138.339 51.2313 139.327 49.686C140.315 48.1153 141.658 46.8867 143.355 46C145.078 45.088 147.041 44.632 149.245 44.632C151.424 44.632 153.362 45.088 155.059 46C156.782 46.8867 158.137 48.1153 159.125 49.686C160.113 51.2313 160.607 53.0047 160.607 55.006C160.607 57.0073 160.113 58.7933 159.125 60.364C158.137 61.9093 156.782 63.138 155.059 64.05C153.362 64.9367 151.424 65.38 149.245 65.38ZM149.245 61.808C150.638 61.808 151.892 61.5167 153.007 60.934C154.147 60.326 155.034 59.5153 155.667 58.502C156.326 57.4633 156.642 56.298 156.617 55.006C156.642 53.6887 156.326 52.5233 155.667 51.51C155.034 50.4713 154.147 49.6607 153.007 49.078C151.892 48.4953 150.638 48.204 149.245 48.204C147.852 48.204 146.585 48.508 145.445 49.116C144.305 49.6987 143.406 50.4967 142.747 51.51C142.114 52.5233 141.81 53.6887 141.835 55.006C141.81 56.298 142.114 57.4633 142.747 58.502C143.406 59.5153 144.305 60.326 145.445 60.934C146.585 61.5167 147.852 61.808 149.245 61.808Z" fill="black"/>
<path d="M176.3 65.38C174.349 65.38 172.614 64.9367 171.094 64.05C169.574 63.138 168.371 61.8967 167.484 60.326C166.623 58.7553 166.192 56.9693 166.192 54.968C166.192 52.9667 166.635 51.1933 167.522 49.648C168.434 48.0773 169.675 46.8487 171.246 45.962C172.817 45.0753 174.603 44.632 176.604 44.632C177.82 44.632 178.935 44.7967 179.948 45.126C180.987 45.43 181.886 45.8607 182.646 46.418C183.406 46.9753 184.014 47.596 184.47 48.28C184.926 48.9387 185.179 49.6353 185.23 50.37L184.28 50.218V45.05H188.194V65H184.28V59.946L185.116 59.908C185.015 60.5413 184.711 61.1873 184.204 61.846C183.723 62.4793 183.064 63.062 182.228 63.594C181.417 64.126 180.505 64.5567 179.492 64.886C178.479 65.2153 177.415 65.38 176.3 65.38ZM177.288 61.77C178.681 61.77 179.91 61.4787 180.974 60.896C182.063 60.3133 182.912 59.5153 183.52 58.502C184.128 57.4633 184.432 56.2853 184.432 54.968C184.432 53.7013 184.128 52.5613 183.52 51.548C182.912 50.5347 182.063 49.7367 180.974 49.154C179.91 48.546 178.681 48.242 177.288 48.242C175.895 48.242 174.666 48.546 173.602 49.154C172.538 49.7367 171.702 50.5347 171.094 51.548C170.486 52.5613 170.182 53.7013 170.182 54.968C170.182 56.2853 170.486 57.4633 171.094 58.502C171.702 59.5153 172.538 60.3133 173.602 60.896C174.666 61.4787 175.895 61.77 177.288 61.77Z" fill="black"/>
<path d="M206.071 65.38C204.019 65.38 202.207 64.9367 200.637 64.05C199.066 63.138 197.837 61.9093 196.951 60.364C196.064 58.7933 195.621 57.0073 195.621 55.006C195.621 53.0047 196.064 51.2313 196.951 49.686C197.863 48.1153 199.104 46.8867 200.675 46C202.271 45.088 204.082 44.632 206.109 44.632C207.299 44.632 208.414 44.7967 209.453 45.126C210.517 45.4553 211.454 45.8987 212.265 46.456C213.101 46.988 213.747 47.5833 214.203 48.242C214.659 48.8753 214.887 49.5087 214.887 50.142L213.747 50.218V36.88H217.661V65H213.747V59.946L214.507 60.06C214.507 60.668 214.266 61.276 213.785 61.884C213.329 62.492 212.708 63.062 211.923 63.594C211.137 64.126 210.238 64.5567 209.225 64.886C208.211 65.2153 207.16 65.38 206.071 65.38ZM206.755 61.922C208.148 61.922 209.377 61.618 210.441 61.01C211.53 60.402 212.379 59.5787 212.987 58.54C213.595 57.5013 213.899 56.3233 213.899 55.006C213.899 53.6887 213.595 52.5107 212.987 51.472C212.379 50.4333 211.53 49.6227 210.441 49.04C209.377 48.432 208.148 48.128 206.755 48.128C205.361 48.128 204.12 48.432 203.031 49.04C201.967 49.6227 201.131 50.4333 200.523 51.472C199.915 52.5107 199.611 53.6887 199.611 55.006C199.611 56.3233 199.915 57.5013 200.523 58.54C201.131 59.5787 201.967 60.402 203.031 61.01C204.12 61.618 205.361 61.922 206.755 61.922Z" fill="black"/>
<path d="M240.762 65V38.4H244.6L262.992 60.174L262.536 60.516C262.409 59.832 262.308 59.0973 262.232 58.312C262.156 57.5013 262.08 56.6653 262.004 55.804C261.953 54.9173 261.903 54.0053 261.852 53.068C261.827 52.1053 261.801 51.13 261.776 50.142C261.776 49.154 261.776 48.1533 261.776 47.14V38.4H265.88V65H261.966L243.84 44.024L244.106 43.492C244.182 44.6067 244.258 45.62 244.334 46.532C244.41 47.4187 244.486 48.2293 244.562 48.964C244.638 49.6987 244.689 50.37 244.714 50.978C244.765 51.5607 244.803 52.1053 244.828 52.612C244.853 53.0933 244.866 53.5367 244.866 53.942V65H240.762Z" fill="black"/>
<path d="M285.33 65.38C283.05 65.38 281.023 64.9493 279.25 64.088C277.476 63.2013 276.083 61.998 275.07 60.478C274.082 58.958 273.588 57.21 273.588 55.234C273.588 53.6127 273.879 52.156 274.462 50.864C275.044 49.572 275.842 48.4573 276.856 47.52C277.894 46.5827 279.11 45.8607 280.504 45.354C281.897 44.8473 283.392 44.594 284.988 44.594C286.432 44.594 287.774 44.8347 289.016 45.316C290.282 45.7973 291.384 46.4687 292.322 47.33C293.259 48.1913 293.981 49.2173 294.488 50.408C295.02 51.5733 295.273 52.8653 295.248 54.284L295.21 56.108H276.78L275.906 52.992H291.828L291.258 53.486V52.574C291.156 51.738 290.802 50.9907 290.194 50.332C289.586 49.6733 288.826 49.154 287.914 48.774C287.002 48.394 286.026 48.204 284.988 48.204C283.468 48.204 282.138 48.4447 280.998 48.926C279.883 49.4073 279.009 50.1547 278.376 51.168C277.768 52.156 277.464 53.4227 277.464 54.968C277.464 56.3613 277.818 57.5647 278.528 58.578C279.237 59.5913 280.225 60.3767 281.492 60.934C282.758 61.4913 284.215 61.77 285.862 61.77C287.28 61.77 288.509 61.5673 289.548 61.162C290.586 60.7567 291.574 60.1993 292.512 59.49L294.374 62.34C293.715 62.8973 292.892 63.4167 291.904 63.898C290.916 64.354 289.852 64.7213 288.712 65C287.597 65.2533 286.47 65.38 285.33 65.38Z" fill="black"/>
<path d="M306.795 65L299.765 45.05L303.869 45.012L308.771 60.25L307.897 60.174L313.483 48.204H316.257L321.919 60.212L321.045 60.288L326.365 45.05H330.317L323.059 65H320.361L314.015 51.282L315.649 51.168L309.455 65H306.795Z" fill="black"/>
<path d="M347.863 65L359.225 38.4H363.671L374.957 65H370.511L363.291 48.052C363.164 47.748 362.987 47.3047 362.759 46.722C362.556 46.114 362.328 45.468 362.075 44.784C361.821 44.1 361.581 43.454 361.353 42.846C361.125 42.2127 360.947 41.7187 360.821 41.364L361.847 41.326C361.669 41.8327 361.467 42.39 361.239 42.998C361.036 43.606 360.808 44.2267 360.555 44.86C360.327 45.4933 360.099 46.1013 359.871 46.684C359.643 47.2413 359.44 47.748 359.263 48.204L352.081 65H347.863ZM352.841 58.54L354.437 54.588H367.965L369.295 58.54H352.841Z" fill="black"/>
<path d="M388.917 65.38C386.992 65.38 385.231 65.0887 383.635 64.506C382.065 63.9233 380.747 63.0113 379.683 61.77L382.343 59.414C383.205 60.326 384.18 61.01 385.269 61.466C386.384 61.922 387.613 62.15 388.955 62.15C389.487 62.15 390.019 62.0993 390.551 61.998C391.083 61.8967 391.565 61.7447 391.995 61.542C392.426 61.3393 392.768 61.0733 393.021 60.744C393.275 60.4147 393.401 60.0347 393.401 59.604C393.401 58.8693 392.971 58.2993 392.109 57.894C391.653 57.7167 391.096 57.5267 390.437 57.324C389.779 57.1213 389.006 56.9313 388.119 56.754C386.625 56.4247 385.333 56.0573 384.243 55.652C383.154 55.2213 382.28 54.702 381.621 54.094C381.14 53.6127 380.773 53.068 380.519 52.46C380.291 51.852 380.177 51.1553 380.177 50.37C380.177 49.534 380.38 48.7613 380.785 48.052C381.216 47.3427 381.811 46.7347 382.571 46.228C383.331 45.7213 384.218 45.3287 385.231 45.05C386.245 44.7713 387.334 44.632 388.499 44.632C389.538 44.632 390.589 44.7587 391.653 45.012C392.743 45.24 393.756 45.5947 394.693 46.076C395.656 46.532 396.454 47.1147 397.087 47.824L394.921 50.37C394.339 49.8887 393.68 49.458 392.945 49.078C392.236 48.698 391.501 48.4067 390.741 48.204C389.981 47.976 389.272 47.862 388.613 47.862C388.056 47.862 387.499 47.9127 386.941 48.014C386.384 48.09 385.89 48.2293 385.459 48.432C385.054 48.6093 384.725 48.85 384.471 49.154C384.218 49.458 384.091 49.8253 384.091 50.256C384.091 50.5853 384.167 50.8893 384.319 51.168C384.497 51.4213 384.725 51.6493 385.003 51.852C385.434 52.1307 386.017 52.384 386.751 52.612C387.486 52.84 388.36 53.0553 389.373 53.258C390.691 53.5367 391.856 53.866 392.869 54.246C393.908 54.6007 394.769 55.044 395.453 55.576C396.036 56.0067 396.467 56.526 396.745 57.134C397.049 57.742 397.201 58.4387 397.201 59.224C397.201 60.4653 396.821 61.5547 396.061 62.492C395.327 63.404 394.339 64.1133 393.097 64.62C391.856 65.1267 390.463 65.38 388.917 65.38Z" fill="black"/>
<path d="M411.962 65.38C410.037 65.38 408.276 65.0887 406.68 64.506C405.109 63.9233 403.792 63.0113 402.728 61.77L405.388 59.414C406.25 60.326 407.225 61.01 408.314 61.466C409.429 61.922 410.658 62.15 412 62.15C412.532 62.15 413.064 62.0993 413.596 61.998C414.128 61.8967 414.61 61.7447 415.04 61.542C415.471 61.3393 415.813 61.0733 416.066 60.744C416.32 60.4147 416.446 60.0347 416.446 59.604C416.446 58.8693 416.016 58.2993 415.154 57.894C414.698 57.7167 414.141 57.5267 413.482 57.324C412.824 57.1213 412.051 56.9313 411.164 56.754C409.67 56.4247 408.378 56.0573 407.288 55.652C406.199 55.2213 405.325 54.702 404.666 54.094C404.185 53.6127 403.818 53.068 403.564 52.46C403.336 51.852 403.222 51.1553 403.222 50.37C403.222 49.534 403.425 48.7613 403.83 48.052C404.261 47.3427 404.856 46.7347 405.616 46.228C406.376 45.7213 407.263 45.3287 408.276 45.05C409.29 44.7713 410.379 44.632 411.544 44.632C412.583 44.632 413.634 44.7587 414.698 45.012C415.788 45.24 416.801 45.5947 417.738 46.076C418.701 46.532 419.499 47.1147 420.132 47.824L417.966 50.37C417.384 49.8887 416.725 49.458 415.99 49.078C415.281 48.698 414.546 48.4067 413.786 48.204C413.026 47.976 412.317 47.862 411.658 47.862C411.101 47.862 410.544 47.9127 409.986 48.014C409.429 48.09 408.935 48.2293 408.504 48.432C408.099 48.6093 407.77 48.85 407.516 49.154C407.263 49.458 407.136 49.8253 407.136 50.256C407.136 50.5853 407.212 50.8893 407.364 51.168C407.542 51.4213 407.77 51.6493 408.048 51.852C408.479 52.1307 409.061 52.384 409.796 52.612C410.531 52.84 411.405 53.0553 412.418 53.258C413.736 53.5367 414.901 53.866 415.914 54.246C416.953 54.6007 417.814 55.044 418.498 55.576C419.081 56.0067 419.512 56.526 419.79 57.134C420.094 57.742 420.246 58.4387 420.246 59.224C420.246 60.4653 419.866 61.5547 419.106 62.492C418.372 63.404 417.384 64.1133 416.142 64.62C414.901 65.1267 413.508 65.38 411.962 65.38Z" fill="black"/>
<path d="M428.395 65V45.05H432.309V65H428.395ZM430.295 40.49C429.459 40.49 428.813 40.2747 428.357 39.844C427.901 39.4133 427.673 38.8053 427.673 38.02C427.673 37.2853 427.901 36.69 428.357 36.234C428.838 35.778 429.484 35.55 430.295 35.55C431.131 35.55 431.777 35.7653 432.233 36.196C432.689 36.6267 432.917 37.2347 432.917 38.02C432.917 38.7547 432.676 39.35 432.195 39.806C431.739 40.262 431.106 40.49 430.295 40.49Z" fill="black"/>
<path d="M452.139 73.74C450.366 73.74 448.732 73.512 447.237 73.056C445.742 72.6 444.539 72.03 443.627 71.346L445.033 68.23C445.565 68.5593 446.198 68.876 446.933 69.18C447.668 69.484 448.478 69.7373 449.365 69.94C450.252 70.1427 451.176 70.244 452.139 70.244C453.558 70.244 454.774 69.9907 455.787 69.484C456.8 68.9773 457.586 68.23 458.143 67.242C458.7 66.254 458.979 65.0507 458.979 63.632V60.402L459.397 60.668C459.245 61.428 458.751 62.1753 457.915 62.91C457.104 63.6193 456.078 64.2147 454.837 64.696C453.621 65.152 452.342 65.38 450.999 65.38C448.947 65.38 447.123 64.9367 445.527 64.05C443.956 63.138 442.715 61.9093 441.803 60.364C440.891 58.7933 440.435 57.0073 440.435 55.006C440.435 53.0047 440.891 51.2313 441.803 49.686C442.74 48.1153 444.02 46.8867 445.641 46C447.262 45.088 449.112 44.632 451.189 44.632C451.873 44.632 452.595 44.7207 453.355 44.898C454.14 45.0753 454.9 45.3287 455.635 45.658C456.37 45.962 457.041 46.3167 457.649 46.722C458.257 47.1273 458.751 47.5707 459.131 48.052C459.536 48.508 459.764 48.964 459.815 49.42L458.979 49.724V45.05H462.893V63.176C462.893 64.924 462.614 66.444 462.057 67.736C461.525 69.0533 460.778 70.1553 459.815 71.042C458.852 71.9287 457.712 72.6 456.395 73.056C455.078 73.512 453.659 73.74 452.139 73.74ZM451.873 61.77C453.292 61.77 454.546 61.4787 455.635 60.896C456.75 60.3133 457.611 59.5153 458.219 58.502C458.827 57.4887 459.131 56.3233 459.131 55.006C459.131 53.6887 458.814 52.5233 458.181 51.51C457.573 50.4713 456.724 49.6607 455.635 49.078C454.546 48.4953 453.292 48.204 451.873 48.204C450.429 48.204 449.15 48.508 448.035 49.116C446.92 49.6987 446.034 50.5093 445.375 51.548C444.742 52.5613 444.425 53.714 444.425 55.006C444.425 56.298 444.742 57.4633 445.375 58.502C446.034 59.5153 446.92 60.3133 448.035 60.896C449.15 61.4787 450.429 61.77 451.873 61.77Z" fill="black"/>
<path d="M472.546 65V45.05H476.46V49.762L475.472 50.066C475.852 49.154 476.448 48.2927 477.258 47.482C478.069 46.646 479.032 45.962 480.146 45.43C481.286 44.898 482.49 44.632 483.756 44.632C485.504 44.632 486.961 44.974 488.126 45.658C489.317 46.3167 490.204 47.2667 490.786 48.508C491.369 49.7493 491.66 51.244 491.66 52.992V65H487.746V53.41C487.746 52.27 487.531 51.32 487.1 50.56C486.695 49.7747 486.1 49.192 485.314 48.812C484.554 48.4067 483.655 48.2167 482.616 48.242C481.73 48.242 480.906 48.394 480.146 48.698C479.412 49.002 478.766 49.4073 478.208 49.914C477.651 50.4207 477.22 50.9907 476.916 51.624C476.612 52.232 476.46 52.8653 476.46 53.524V65H474.522C474.066 65 473.674 65 473.344 65C473.015 65 472.749 65 472.546 65Z" fill="black"/>
<path d="M501.187 65V45.05H505.139V49.914L504.113 50.066C504.315 49.458 504.67 48.8373 505.177 48.204C505.683 47.5707 506.317 47.0007 507.077 46.494C507.837 45.962 508.673 45.5313 509.585 45.202C510.522 44.8727 511.523 44.708 512.587 44.708C513.828 44.708 514.943 44.9107 515.931 45.316C516.919 45.7213 517.717 46.342 518.325 47.178C518.958 48.014 519.376 49.0527 519.579 50.294L518.667 50.066L518.933 49.42C519.237 48.888 519.655 48.356 520.187 47.824C520.744 47.2667 521.39 46.76 522.125 46.304C522.885 45.8227 523.695 45.4427 524.557 45.164C525.418 44.86 526.305 44.708 527.217 44.708C528.99 44.708 530.421 45.05 531.511 45.734C532.6 46.418 533.398 47.3933 533.905 48.66C534.411 49.9267 534.665 51.434 534.665 53.182V65H530.713V53.562C530.713 52.422 530.548 51.472 530.219 50.712C529.915 49.9267 529.433 49.3313 528.775 48.926C528.116 48.5207 527.255 48.318 526.191 48.318C525.304 48.318 524.468 48.47 523.683 48.774C522.923 49.0527 522.251 49.458 521.669 49.99C521.086 50.4967 520.63 51.092 520.301 51.776C519.997 52.46 519.845 53.1947 519.845 53.98V65H515.893V53.486C515.893 52.422 515.715 51.51 515.361 50.75C515.006 49.9647 514.474 49.3693 513.765 48.964C513.055 48.5333 512.156 48.318 511.067 48.318C510.205 48.318 509.42 48.47 508.711 48.774C508.001 49.078 507.368 49.4833 506.811 49.99C506.279 50.4967 505.861 51.0667 505.557 51.7C505.278 52.308 505.139 52.9413 505.139 53.6V65H501.187Z" fill="black"/>
<path d="M553.705 65.38C551.425 65.38 549.398 64.9493 547.625 64.088C545.851 63.2013 544.458 61.998 543.445 60.478C542.457 58.958 541.963 57.21 541.963 55.234C541.963 53.6127 542.254 52.156 542.837 50.864C543.419 49.572 544.217 48.4573 545.231 47.52C546.269 46.5827 547.485 45.8607 548.879 45.354C550.272 44.8473 551.767 44.594 553.363 44.594C554.807 44.594 556.149 44.8347 557.391 45.316C558.657 45.7973 559.759 46.4687 560.697 47.33C561.634 48.1913 562.356 49.2173 562.863 50.408C563.395 51.5733 563.648 52.8653 563.623 54.284L563.585 56.108H545.155L544.281 52.992H560.203L559.633 53.486V52.574C559.531 51.738 559.177 50.9907 558.569 50.332C557.961 49.6733 557.201 49.154 556.289 48.774C555.377 48.394 554.401 48.204 553.363 48.204C551.843 48.204 550.513 48.4447 549.373 48.926C548.258 49.4073 547.384 50.1547 546.751 51.168C546.143 52.156 545.839 53.4227 545.839 54.968C545.839 56.3613 546.193 57.5647 546.903 58.578C547.612 59.5913 548.6 60.3767 549.867 60.934C551.133 61.4913 552.59 61.77 554.237 61.77C555.655 61.77 556.884 61.5673 557.923 61.162C558.961 60.7567 559.949 60.1993 560.887 59.49L562.749 62.34C562.09 62.8973 561.267 63.4167 560.279 63.898C559.291 64.354 558.227 64.7213 557.087 65C555.972 65.2533 554.845 65.38 553.705 65.38Z" fill="black"/>
<path d="M571.703 65V45.05H575.617V49.762L574.629 50.066C575.009 49.154 575.604 48.2927 576.415 47.482C577.225 46.646 578.188 45.962 579.303 45.43C580.443 44.898 581.646 44.632 582.913 44.632C584.661 44.632 586.117 44.974 587.283 45.658C588.473 46.3167 589.36 47.2667 589.943 48.508C590.525 49.7493 590.817 51.244 590.817 52.992V65H586.903V53.41C586.903 52.27 586.687 51.32 586.257 50.56C585.851 49.7747 585.256 49.192 584.471 48.812C583.711 48.4067 582.811 48.2167 581.773 48.242C580.886 48.242 580.063 48.394 579.303 48.698C578.568 49.002 577.922 49.4073 577.365 49.914C576.807 50.4207 576.377 50.9907 576.073 51.624C575.769 52.232 575.617 52.8653 575.617 53.524V65H573.679C573.223 65 572.83 65 572.501 65C572.171 65 571.905 65 571.703 65Z" fill="black"/>
<path d="M603.307 65V39.502H607.221V65H603.307ZM598.253 48.85V45.05H613.073V48.85H598.253Z" fill="black"/>
<path d="M10 10H665V94H10V10Z" stroke="black" stroke-width="6" mask="url(#path-1-outside-1_138_372)"/>
<path d="M75.5206 65.228C73.2152 65.228 71.1759 64.734 69.4026 63.746C67.6292 62.758 66.2359 61.4027 65.2226 59.68C64.2346 57.932 63.7406 55.9687 63.7406 53.79V38.362H67.8446V53.524C67.8446 54.9933 68.1866 56.3107 68.8706 57.476C69.5799 58.6413 70.5046 59.566 71.6446 60.25C72.8099 60.934 74.1019 61.276 75.5206 61.276C77.0152 61.276 78.3452 60.934 79.5106 60.25C80.7012 59.566 81.6386 58.6413 82.3226 57.476C83.0319 56.3107 83.3866 54.9933 83.3866 53.524V38.362H87.3006V53.79C87.3006 55.9687 86.7939 57.932 85.7806 59.68C84.7926 61.4027 83.4119 62.758 81.6386 63.746C79.8652 64.734 77.8259 65.228 75.5206 65.228Z" stroke="black" stroke-width="6" mask="url(#path-1-outside-1_138_372)"/>
<path d="M96.8882 73.36V45.05H100.84V49.61L100.232 49.268C100.409 48.5333 100.891 47.824 101.676 47.14C102.487 46.4307 103.475 45.848 104.64 45.392C105.831 44.936 107.072 44.708 108.364 44.708C110.416 44.708 112.215 45.1513 113.76 46.038C115.305 46.9247 116.521 48.1407 117.408 49.686C118.295 51.2313 118.738 53.0047 118.738 55.006C118.738 56.982 118.295 58.7553 117.408 60.326C116.547 61.8713 115.331 63.1 113.76 64.012C112.215 64.8987 110.454 65.342 108.478 65.342C107.085 65.342 105.767 65.1013 104.526 64.62C103.285 64.1133 102.246 63.4927 101.41 62.758C100.574 62.0233 100.055 61.2887 99.8522 60.554L100.84 60.022V73.36H96.8882ZM107.832 61.732C109.225 61.732 110.454 61.4407 111.518 60.858C112.582 60.2753 113.418 59.4773 114.026 58.464C114.659 57.4507 114.976 56.298 114.976 55.006C114.976 53.714 114.672 52.574 114.064 51.586C113.456 50.5727 112.62 49.7747 111.556 49.192C110.492 48.6093 109.251 48.318 107.832 48.318C106.439 48.318 105.197 48.6093 104.108 49.192C103.044 49.7493 102.195 50.5347 101.562 51.548C100.954 52.5613 100.65 53.714 100.65 55.006C100.65 56.298 100.954 57.4507 101.562 58.464C102.195 59.4773 103.044 60.2753 104.108 60.858C105.197 61.4407 106.439 61.732 107.832 61.732Z" stroke="black" stroke-width="6" mask="url(#path-1-outside-1_138_372)"/>
<path d="M126.499 65V36.88H130.413V65H126.499Z" stroke="black" stroke-width="6" mask="url(#path-1-outside-1_138_372)"/>
<path d="M149.245 65.38C147.041 65.38 145.078 64.9367 143.355 64.05C141.658 63.138 140.315 61.9093 139.327 60.364C138.339 58.7933 137.845 57.0073 137.845 55.006C137.845 53.0047 138.339 51.2313 139.327 49.686C140.315 48.1153 141.658 46.8867 143.355 46C145.078 45.088 147.041 44.632 149.245 44.632C151.424 44.632 153.362 45.088 155.059 46C156.782 46.8867 158.137 48.1153 159.125 49.686C160.113 51.2313 160.607 53.0047 160.607 55.006C160.607 57.0073 160.113 58.7933 159.125 60.364C158.137 61.9093 156.782 63.138 155.059 64.05C153.362 64.9367 151.424 65.38 149.245 65.38ZM149.245 61.808C150.638 61.808 151.892 61.5167 153.007 60.934C154.147 60.326 155.034 59.5153 155.667 58.502C156.326 57.4633 156.642 56.298 156.617 55.006C156.642 53.6887 156.326 52.5233 155.667 51.51C155.034 50.4713 154.147 49.6607 153.007 49.078C151.892 48.4953 150.638 48.204 149.245 48.204C147.852 48.204 146.585 48.508 145.445 49.116C144.305 49.6987 143.406 50.4967 142.747 51.51C142.114 52.5233 141.81 53.6887 141.835 55.006C141.81 56.298 142.114 57.4633 142.747 58.502C143.406 59.5153 144.305 60.326 145.445 60.934C146.585 61.5167 147.852 61.808 149.245 61.808Z" stroke="black" stroke-width="6" mask="url(#path-1-outside-1_138_372)"/>
<path d="M176.3 65.38C174.349 65.38 172.614 64.9367 171.094 64.05C169.574 63.138 168.371 61.8967 167.484 60.326C166.623 58.7553 166.192 56.9693 166.192 54.968C166.192 52.9667 166.635 51.1933 167.522 49.648C168.434 48.0773 169.675 46.8487 171.246 45.962C172.817 45.0753 174.603 44.632 176.604 44.632C177.82 44.632 178.935 44.7967 179.948 45.126C180.987 45.43 181.886 45.8607 182.646 46.418C183.406 46.9753 184.014 47.596 184.47 48.28C184.926 48.9387 185.179 49.6353 185.23 50.37L184.28 50.218V45.05H188.194V65H184.28V59.946L185.116 59.908C185.015 60.5413 184.711 61.1873 184.204 61.846C183.723 62.4793 183.064 63.062 182.228 63.594C181.417 64.126 180.505 64.5567 179.492 64.886C178.479 65.2153 177.415 65.38 176.3 65.38ZM177.288 61.77C178.681 61.77 179.91 61.4787 180.974 60.896C182.063 60.3133 182.912 59.5153 183.52 58.502C184.128 57.4633 184.432 56.2853 184.432 54.968C184.432 53.7013 184.128 52.5613 183.52 51.548C182.912 50.5347 182.063 49.7367 180.974 49.154C179.91 48.546 178.681 48.242 177.288 48.242C175.895 48.242 174.666 48.546 173.602 49.154C172.538 49.7367 171.702 50.5347 171.094 51.548C170.486 52.5613 170.182 53.7013 170.182 54.968C170.182 56.2853 170.486 57.4633 171.094 58.502C171.702 59.5153 172.538 60.3133 173.602 60.896C174.666 61.4787 175.895 61.77 177.288 61.77Z" stroke="black" stroke-width="6" mask="url(#path-1-outside-1_138_372)"/>
<path d="M206.071 65.38C204.019 65.38 202.207 64.9367 200.637 64.05C199.066 63.138 197.837 61.9093 196.951 60.364C196.064 58.7933 195.621 57.0073 195.621 55.006C195.621 53.0047 196.064 51.2313 196.951 49.686C197.863 48.1153 199.104 46.8867 200.675 46C202.271 45.088 204.082 44.632 206.109 44.632C207.299 44.632 208.414 44.7967 209.453 45.126C210.517 45.4553 211.454 45.8987 212.265 46.456C213.101 46.988 213.747 47.5833 214.203 48.242C214.659 48.8753 214.887 49.5087 214.887 50.142L213.747 50.218V36.88H217.661V65H213.747V59.946L214.507 60.06C214.507 60.668 214.266 61.276 213.785 61.884C213.329 62.492 212.708 63.062 211.923 63.594C211.137 64.126 210.238 64.5567 209.225 64.886C208.211 65.2153 207.16 65.38 206.071 65.38ZM206.755 61.922C208.148 61.922 209.377 61.618 210.441 61.01C211.53 60.402 212.379 59.5787 212.987 58.54C213.595 57.5013 213.899 56.3233 213.899 55.006C213.899 53.6887 213.595 52.5107 212.987 51.472C212.379 50.4333 211.53 49.6227 210.441 49.04C209.377 48.432 208.148 48.128 206.755 48.128C205.361 48.128 204.12 48.432 203.031 49.04C201.967 49.6227 201.131 50.4333 200.523 51.472C199.915 52.5107 199.611 53.6887 199.611 55.006C199.611 56.3233 199.915 57.5013 200.523 58.54C201.131 59.5787 201.967 60.402 203.031 61.01C204.12 61.618 205.361 61.922 206.755 61.922Z" stroke="black" stroke-width="6" mask="url(#path-1-outside-1_138_372)"/>
<path d="M240.762 65V38.4H244.6L262.992 60.174L262.536 60.516C262.409 59.832 262.308 59.0973 262.232 58.312C262.156 57.5013 262.08 56.6653 262.004 55.804C261.953 54.9173 261.903 54.0053 261.852 53.068C261.827 52.1053 261.801 51.13 261.776 50.142C261.776 49.154 261.776 48.1533 261.776 47.14V38.4H265.88V65H261.966L243.84 44.024L244.106 43.492C244.182 44.6067 244.258 45.62 244.334 46.532C244.41 47.4187 244.486 48.2293 244.562 48.964C244.638 49.6987 244.689 50.37 244.714 50.978C244.765 51.5607 244.803 52.1053 244.828 52.612C244.853 53.0933 244.866 53.5367 244.866 53.942V65H240.762Z" stroke="black" stroke-width="6" mask="url(#path-1-outside-1_138_372)"/>
<path d="M285.33 65.38C283.05 65.38 281.023 64.9493 279.25 64.088C277.476 63.2013 276.083 61.998 275.07 60.478C274.082 58.958 273.588 57.21 273.588 55.234C273.588 53.6127 273.879 52.156 274.462 50.864C275.044 49.572 275.842 48.4573 276.856 47.52C277.894 46.5827 279.11 45.8607 280.504 45.354C281.897 44.8473 283.392 44.594 284.988 44.594C286.432 44.594 287.774 44.8347 289.016 45.316C290.282 45.7973 291.384 46.4687 292.322 47.33C293.259 48.1913 293.981 49.2173 294.488 50.408C295.02 51.5733 295.273 52.8653 295.248 54.284L295.21 56.108H276.78L275.906 52.992H291.828L291.258 53.486V52.574C291.156 51.738 290.802 50.9907 290.194 50.332C289.586 49.6733 288.826 49.154 287.914 48.774C287.002 48.394 286.026 48.204 284.988 48.204C283.468 48.204 282.138 48.4447 280.998 48.926C279.883 49.4073 279.009 50.1547 278.376 51.168C277.768 52.156 277.464 53.4227 277.464 54.968C277.464 56.3613 277.818 57.5647 278.528 58.578C279.237 59.5913 280.225 60.3767 281.492 60.934C282.758 61.4913 284.215 61.77 285.862 61.77C287.28 61.77 288.509 61.5673 289.548 61.162C290.586 60.7567 291.574 60.1993 292.512 59.49L294.374 62.34C293.715 62.8973 292.892 63.4167 291.904 63.898C290.916 64.354 289.852 64.7213 288.712 65C287.597 65.2533 286.47 65.38 285.33 65.38Z" stroke="black" stroke-width="6" mask="url(#path-1-outside-1_138_372)"/>
<path d="M306.795 65L299.765 45.05L303.869 45.012L308.771 60.25L307.897 60.174L313.483 48.204H316.257L321.919 60.212L321.045 60.288L326.365 45.05H330.317L323.059 65H320.361L314.015 51.282L315.649 51.168L309.455 65H306.795Z" stroke="black" stroke-width="6" mask="url(#path-1-outside-1_138_372)"/>
<path d="M347.863 65L359.225 38.4H363.671L374.957 65H370.511L363.291 48.052C363.164 47.748 362.987 47.3047 362.759 46.722C362.556 46.114 362.328 45.468 362.075 44.784C361.821 44.1 361.581 43.454 361.353 42.846C361.125 42.2127 360.947 41.7187 360.821 41.364L361.847 41.326C361.669 41.8327 361.467 42.39 361.239 42.998C361.036 43.606 360.808 44.2267 360.555 44.86C360.327 45.4933 360.099 46.1013 359.871 46.684C359.643 47.2413 359.44 47.748 359.263 48.204L352.081 65H347.863ZM352.841 58.54L354.437 54.588H367.965L369.295 58.54H352.841Z" stroke="black" stroke-width="6" mask="url(#path-1-outside-1_138_372)"/>
<path d="M388.917 65.38C386.992 65.38 385.231 65.0887 383.635 64.506C382.065 63.9233 380.747 63.0113 379.683 61.77L382.343 59.414C383.205 60.326 384.18 61.01 385.269 61.466C386.384 61.922 387.613 62.15 388.955 62.15C389.487 62.15 390.019 62.0993 390.551 61.998C391.083 61.8967 391.565 61.7447 391.995 61.542C392.426 61.3393 392.768 61.0733 393.021 60.744C393.275 60.4147 393.401 60.0347 393.401 59.604C393.401 58.8693 392.971 58.2993 392.109 57.894C391.653 57.7167 391.096 57.5267 390.437 57.324C389.779 57.1213 389.006 56.9313 388.119 56.754C386.625 56.4247 385.333 56.0573 384.243 55.652C383.154 55.2213 382.28 54.702 381.621 54.094C381.14 53.6127 380.773 53.068 380.519 52.46C380.291 51.852 380.177 51.1553 380.177 50.37C380.177 49.534 380.38 48.7613 380.785 48.052C381.216 47.3427 381.811 46.7347 382.571 46.228C383.331 45.7213 384.218 45.3287 385.231 45.05C386.245 44.7713 387.334 44.632 388.499 44.632C389.538 44.632 390.589 44.7587 391.653 45.012C392.743 45.24 393.756 45.5947 394.693 46.076C395.656 46.532 396.454 47.1147 397.087 47.824L394.921 50.37C394.339 49.8887 393.68 49.458 392.945 49.078C392.236 48.698 391.501 48.4067 390.741 48.204C389.981 47.976 389.272 47.862 388.613 47.862C388.056 47.862 387.499 47.9127 386.941 48.014C386.384 48.09 385.89 48.2293 385.459 48.432C385.054 48.6093 384.725 48.85 384.471 49.154C384.218 49.458 384.091 49.8253 384.091 50.256C384.091 50.5853 384.167 50.8893 384.319 51.168C384.497 51.4213 384.725 51.6493 385.003 51.852C385.434 52.1307 386.017 52.384 386.751 52.612C387.486 52.84 388.36 53.0553 389.373 53.258C390.691 53.5367 391.856 53.866 392.869 54.246C393.908 54.6007 394.769 55.044 395.453 55.576C396.036 56.0067 396.467 56.526 396.745 57.134C397.049 57.742 397.201 58.4387 397.201 59.224C397.201 60.4653 396.821 61.5547 396.061 62.492C395.327 63.404 394.339 64.1133 393.097 64.62C391.856 65.1267 390.463 65.38 388.917 65.38Z" stroke="black" stroke-width="6" mask="url(#path-1-outside-1_138_372)"/>
<path d="M411.962 65.38C410.037 65.38 408.276 65.0887 406.68 64.506C405.109 63.9233 403.792 63.0113 402.728 61.77L405.388 59.414C406.25 60.326 407.225 61.01 408.314 61.466C409.429 61.922 410.658 62.15 412 62.15C412.532 62.15 413.064 62.0993 413.596 61.998C414.128 61.8967 414.61 61.7447 415.04 61.542C415.471 61.3393 415.813 61.0733 416.066 60.744C416.32 60.4147 416.446 60.0347 416.446 59.604C416.446 58.8693 416.016 58.2993 415.154 57.894C414.698 57.7167 414.141 57.5267 413.482 57.324C412.824 57.1213 412.051 56.9313 411.164 56.754C409.67 56.4247 408.378 56.0573 407.288 55.652C406.199 55.2213 405.325 54.702 404.666 54.094C404.185 53.6127 403.818 53.068 403.564 52.46C403.336 51.852 403.222 51.1553 403.222 50.37C403.222 49.534 403.425 48.7613 403.83 48.052C404.261 47.3427 404.856 46.7347 405.616 46.228C406.376 45.7213 407.263 45.3287 408.276 45.05C409.29 44.7713 410.379 44.632 411.544 44.632C412.583 44.632 413.634 44.7587 414.698 45.012C415.788 45.24 416.801 45.5947 417.738 46.076C418.701 46.532 419.499 47.1147 420.132 47.824L417.966 50.37C417.384 49.8887 416.725 49.458 415.99 49.078C415.281 48.698 414.546 48.4067 413.786 48.204C413.026 47.976 412.317 47.862 411.658 47.862C411.101 47.862 410.544 47.9127 409.986 48.014C409.429 48.09 408.935 48.2293 408.504 48.432C408.099 48.6093 407.77 48.85 407.516 49.154C407.263 49.458 407.136 49.8253 407.136 50.256C407.136 50.5853 407.212 50.8893 407.364 51.168C407.542 51.4213 407.77 51.6493 408.048 51.852C408.479 52.1307 409.061 52.384 409.796 52.612C410.531 52.84 411.405 53.0553 412.418 53.258C413.736 53.5367 414.901 53.866 415.914 54.246C416.953 54.6007 417.814 55.044 418.498 55.576C419.081 56.0067 419.512 56.526 419.79 57.134C420.094 57.742 420.246 58.4387 420.246 59.224C420.246 60.4653 419.866 61.5547 419.106 62.492C418.372 63.404 417.384 64.1133 416.142 64.62C414.901 65.1267 413.508 65.38 411.962 65.38Z" stroke="black" stroke-width="6" mask="url(#path-1-outside-1_138_372)"/>
<path d="M428.395 65V45.05H432.309V65H428.395ZM430.295 40.49C429.459 40.49 428.813 40.2747 428.357 39.844C427.901 39.4133 427.673 38.8053 427.673 38.02C427.673 37.2853 427.901 36.69 428.357 36.234C428.838 35.778 429.484 35.55 430.295 35.55C431.131 35.55 431.777 35.7653 432.233 36.196C432.689 36.6267 432.917 37.2347 432.917 38.02C432.917 38.7547 432.676 39.35 432.195 39.806C431.739 40.262 431.106 40.49 430.295 40.49Z" stroke="black" stroke-width="6" mask="url(#path-1-outside-1_138_372)"/>
<path d="M452.139 73.74C450.366 73.74 448.732 73.512 447.237 73.056C445.742 72.6 444.539 72.03 443.627 71.346L445.033 68.23C445.565 68.5593 446.198 68.876 446.933 69.18C447.668 69.484 448.478 69.7373 449.365 69.94C450.252 70.1427 451.176 70.244 452.139 70.244C453.558 70.244 454.774 69.9907 455.787 69.484C456.8 68.9773 457.586 68.23 458.143 67.242C458.7 66.254 458.979 65.0507 458.979 63.632V60.402L459.397 60.668C459.245 61.428 458.751 62.1753 457.915 62.91C457.104 63.6193 456.078 64.2147 454.837 64.696C453.621 65.152 452.342 65.38 450.999 65.38C448.947 65.38 447.123 64.9367 445.527 64.05C443.956 63.138 442.715 61.9093 441.803 60.364C440.891 58.7933 440.435 57.0073 440.435 55.006C440.435 53.0047 440.891 51.2313 441.803 49.686C442.74 48.1153 444.02 46.8867 445.641 46C447.262 45.088 449.112 44.632 451.189 44.632C451.873 44.632 452.595 44.7207 453.355 44.898C454.14 45.0753 454.9 45.3287 455.635 45.658C456.37 45.962 457.041 46.3167 457.649 46.722C458.257 47.1273 458.751 47.5707 459.131 48.052C459.536 48.508 459.764 48.964 459.815 49.42L458.979 49.724V45.05H462.893V63.176C462.893 64.924 462.614 66.444 462.057 67.736C461.525 69.0533 460.778 70.1553 459.815 71.042C458.852 71.9287 457.712 72.6 456.395 73.056C455.078 73.512 453.659 73.74 452.139 73.74ZM451.873 61.77C453.292 61.77 454.546 61.4787 455.635 60.896C456.75 60.3133 457.611 59.5153 458.219 58.502C458.827 57.4887 459.131 56.3233 459.131 55.006C459.131 53.6887 458.814 52.5233 458.181 51.51C457.573 50.4713 456.724 49.6607 455.635 49.078C454.546 48.4953 453.292 48.204 451.873 48.204C450.429 48.204 449.15 48.508 448.035 49.116C446.92 49.6987 446.034 50.5093 445.375 51.548C444.742 52.5613 444.425 53.714 444.425 55.006C444.425 56.298 444.742 57.4633 445.375 58.502C446.034 59.5153 446.92 60.3133 448.035 60.896C449.15 61.4787 450.429 61.77 451.873 61.77Z" stroke="black" stroke-width="6" mask="url(#path-1-outside-1_138_372)"/>
<path d="M472.546 65V45.05H476.46V49.762L475.472 50.066C475.852 49.154 476.448 48.2927 477.258 47.482C478.069 46.646 479.032 45.962 480.146 45.43C481.286 44.898 482.49 44.632 483.756 44.632C485.504 44.632 486.961 44.974 488.126 45.658C489.317 46.3167 490.204 47.2667 490.786 48.508C491.369 49.7493 491.66 51.244 491.66 52.992V65H487.746V53.41C487.746 52.27 487.531 51.32 487.1 50.56C486.695 49.7747 486.1 49.192 485.314 48.812C484.554 48.4067 483.655 48.2167 482.616 48.242C481.73 48.242 480.906 48.394 480.146 48.698C479.412 49.002 478.766 49.4073 478.208 49.914C477.651 50.4207 477.22 50.9907 476.916 51.624C476.612 52.232 476.46 52.8653 476.46 53.524V65H474.522C474.066 65 473.674 65 473.344 65C473.015 65 472.749 65 472.546 65Z" stroke="black" stroke-width="6" mask="url(#path-1-outside-1_138_372)"/>
<path d="M501.187 65V45.05H505.139V49.914L504.113 50.066C504.315 49.458 504.67 48.8373 505.177 48.204C505.683 47.5707 506.317 47.0007 507.077 46.494C507.837 45.962 508.673 45.5313 509.585 45.202C510.522 44.8727 511.523 44.708 512.587 44.708C513.828 44.708 514.943 44.9107 515.931 45.316C516.919 45.7213 517.717 46.342 518.325 47.178C518.958 48.014 519.376 49.0527 519.579 50.294L518.667 50.066L518.933 49.42C519.237 48.888 519.655 48.356 520.187 47.824C520.744 47.2667 521.39 46.76 522.125 46.304C522.885 45.8227 523.695 45.4427 524.557 45.164C525.418 44.86 526.305 44.708 527.217 44.708C528.99 44.708 530.421 45.05 531.511 45.734C532.6 46.418 533.398 47.3933 533.905 48.66C534.411 49.9267 534.665 51.434 534.665 53.182V65H530.713V53.562C530.713 52.422 530.548 51.472 530.219 50.712C529.915 49.9267 529.433 49.3313 528.775 48.926C528.116 48.5207 527.255 48.318 526.191 48.318C525.304 48.318 524.468 48.47 523.683 48.774C522.923 49.0527 522.251 49.458 521.669 49.99C521.086 50.4967 520.63 51.092 520.301 51.776C519.997 52.46 519.845 53.1947 519.845 53.98V65H515.893V53.486C515.893 52.422 515.715 51.51 515.361 50.75C515.006 49.9647 514.474 49.3693 513.765 48.964C513.055 48.5333 512.156 48.318 511.067 48.318C510.205 48.318 509.42 48.47 508.711 48.774C508.001 49.078 507.368 49.4833 506.811 49.99C506.279 50.4967 505.861 51.0667 505.557 51.7C505.278 52.308 505.139 52.9413 505.139 53.6V65H501.187Z" stroke="black" stroke-width="6" mask="url(#path-1-outside-1_138_372)"/>
<path d="M553.705 65.38C551.425 65.38 549.398 64.9493 547.625 64.088C545.851 63.2013 544.458 61.998 543.445 60.478C542.457 58.958 541.963 57.21 541.963 55.234C541.963 53.6127 542.254 52.156 542.837 50.864C543.419 49.572 544.217 48.4573 545.231 47.52C546.269 46.5827 547.485 45.8607 548.879 45.354C550.272 44.8473 551.767 44.594 553.363 44.594C554.807 44.594 556.149 44.8347 557.391 45.316C558.657 45.7973 559.759 46.4687 560.697 47.33C561.634 48.1913 562.356 49.2173 562.863 50.408C563.395 51.5733 563.648 52.8653 563.623 54.284L563.585 56.108H545.155L544.281 52.992H560.203L559.633 53.486V52.574C559.531 51.738 559.177 50.9907 558.569 50.332C557.961 49.6733 557.201 49.154 556.289 48.774C555.377 48.394 554.401 48.204 553.363 48.204C551.843 48.204 550.513 48.4447 549.373 48.926C548.258 49.4073 547.384 50.1547 546.751 51.168C546.143 52.156 545.839 53.4227 545.839 54.968C545.839 56.3613 546.193 57.5647 546.903 58.578C547.612 59.5913 548.6 60.3767 549.867 60.934C551.133 61.4913 552.59 61.77 554.237 61.77C555.655 61.77 556.884 61.5673 557.923 61.162C558.961 60.7567 559.949 60.1993 560.887 59.49L562.749 62.34C562.09 62.8973 561.267 63.4167 560.279 63.898C559.291 64.354 558.227 64.7213 557.087 65C555.972 65.2533 554.845 65.38 553.705 65.38Z" stroke="black" stroke-width="6" mask="url(#path-1-outside-1_138_372)"/>
<path d="M571.703 65V45.05H575.617V49.762L574.629 50.066C575.009 49.154 575.604 48.2927 576.415 47.482C577.225 46.646 578.188 45.962 579.303 45.43C580.443 44.898 581.646 44.632 582.913 44.632C584.661 44.632 586.117 44.974 587.283 45.658C588.473 46.3167 589.36 47.2667 589.943 48.508C590.525 49.7493 590.817 51.244 590.817 52.992V65H586.903V53.41C586.903 52.27 586.687 51.32 586.257 50.56C585.851 49.7747 585.256 49.192 584.471 48.812C583.711 48.4067 582.811 48.2167 581.773 48.242C580.886 48.242 580.063 48.394 579.303 48.698C578.568 49.002 577.922 49.4073 577.365 49.914C576.807 50.4207 576.377 50.9907 576.073 51.624C575.769 52.232 575.617 52.8653 575.617 53.524V65H573.679C573.223 65 572.83 65 572.501 65C572.171 65 571.905 65 571.703 65Z" stroke="black" stroke-width="6" mask="url(#path-1-outside-1_138_372)"/>
<path d="M603.307 65V39.502H607.221V65H603.307ZM598.253 48.85V45.05H613.073V48.85H598.253Z" stroke="black" stroke-width="6" mask="url(#path-1-outside-1_138_372)"/>
</g>
<defs>
<filter id="filter0_d_138_372" x="3" y="7" width="669" height="98" filterUnits="userSpaceOnUse" color-interpolation-filters="sRGB">
<feFlood flood-opacity="0" result="BackgroundImageFix"/>
<feColorMatrix in="SourceAlpha" type="matrix" values="0 0 0 0 0 0 0 0 0 0 0 0 0 0 0 0 0 0 127 0" result="hardAlpha"/>
<feOffset dy="4"/>
<feGaussianBlur stdDeviation="2"/>
<feComposite in2="hardAlpha" operator="out"/>
<feColorMatrix type="matrix" values="0 0 0 0 0 0 0 0 0 0 0 0 0 0 0 0 0 0 0.25 0"/>
<feBlend mode="normal" in2="BackgroundImageFix" result="effect1_dropShadow_138_372"/>
<feBlend mode="normal" in="SourceGraphic" in2="effect1_dropShadow_138_372" result="shape"/>
</filter>
</defs>
</svg>
