<svg width="665" height="94" viewBox="0 0 665 94" fill="none" xmlns="http://www.w3.org/2000/svg">
<g filter="url(#filter0_d_127_223)">
<mask id="path-1-outside-1_127_223" maskUnits="userSpaceOnUse" x="4" y="0" width="657" height="86" fill="black">
<rect fill="white" x="4" width="657" height="86"/>
<path d="M5 1H660V85H5V1Z"/>
<path d="M70.5206 56.228C68.2152 56.228 66.1759 55.734 64.4026 54.746C62.6292 53.758 61.2359 52.4027 60.2226 50.68C59.2346 48.932 58.7406 46.9687 58.7406 44.79V29.362H62.8446V44.524C62.8446 45.9933 63.1866 47.3107 63.8706 48.476C64.5799 49.6413 65.5046 50.566 66.6446 51.25C67.8099 51.934 69.1019 52.276 70.5206 52.276C72.0152 52.276 73.3452 51.934 74.5106 51.25C75.7012 50.566 76.6386 49.6413 77.3226 48.476C78.0319 47.3107 78.3866 45.9933 78.3866 44.524V29.362H82.3006V44.79C82.3006 46.9687 81.7939 48.932 80.7806 50.68C79.7926 52.4027 78.4119 53.758 76.6386 54.746C74.8652 55.734 72.8259 56.228 70.5206 56.228Z"/>
<path d="M91.8882 64.36V36.05H95.8402V40.61L95.2322 40.268C95.4095 39.5333 95.8908 38.824 96.6762 38.14C97.4868 37.4307 98.4748 36.848 99.6402 36.392C100.831 35.936 102.072 35.708 103.364 35.708C105.416 35.708 107.215 36.1513 108.76 37.038C110.305 37.9247 111.521 39.1407 112.408 40.686C113.295 42.2313 113.738 44.0047 113.738 46.006C113.738 47.982 113.295 49.7553 112.408 51.326C111.547 52.8713 110.331 54.1 108.76 55.012C107.215 55.8987 105.454 56.342 103.478 56.342C102.085 56.342 100.767 56.1013 99.5262 55.62C98.2848 55.1133 97.2462 54.4927 96.4102 53.758C95.5742 53.0233 95.0548 52.2887 94.8522 51.554L95.8402 51.022V64.36H91.8882ZM102.832 52.732C104.225 52.732 105.454 52.4407 106.518 51.858C107.582 51.2753 108.418 50.4773 109.026 49.464C109.659 48.4507 109.976 47.298 109.976 46.006C109.976 44.714 109.672 43.574 109.064 42.586C108.456 41.5727 107.62 40.7747 106.556 40.192C105.492 39.6093 104.251 39.318 102.832 39.318C101.439 39.318 100.197 39.6093 99.1082 40.192C98.0442 40.7493 97.1955 41.5347 96.5622 42.548C95.9542 43.5613 95.6502 44.714 95.6502 46.006C95.6502 47.298 95.9542 48.4507 96.5622 49.464C97.1955 50.4773 98.0442 51.2753 99.1082 51.858C100.197 52.4407 101.439 52.732 102.832 52.732Z"/>
<path d="M121.499 56V27.88H125.413V56H121.499Z"/>
<path d="M144.245 56.38C142.041 56.38 140.078 55.9367 138.355 55.05C136.658 54.138 135.315 52.9093 134.327 51.364C133.339 49.7933 132.845 48.0073 132.845 46.006C132.845 44.0047 133.339 42.2313 134.327 40.686C135.315 39.1153 136.658 37.8867 138.355 37C140.078 36.088 142.041 35.632 144.245 35.632C146.424 35.632 148.362 36.088 150.059 37C151.782 37.8867 153.137 39.1153 154.125 40.686C155.113 42.2313 155.607 44.0047 155.607 46.006C155.607 48.0073 155.113 49.7933 154.125 51.364C153.137 52.9093 151.782 54.138 150.059 55.05C148.362 55.9367 146.424 56.38 144.245 56.38ZM144.245 52.808C145.638 52.808 146.892 52.5167 148.007 51.934C149.147 51.326 150.034 50.5153 150.667 49.502C151.326 48.4633 151.642 47.298 151.617 46.006C151.642 44.6887 151.326 43.5233 150.667 42.51C150.034 41.4713 149.147 40.6607 148.007 40.078C146.892 39.4953 145.638 39.204 144.245 39.204C142.852 39.204 141.585 39.508 140.445 40.116C139.305 40.6987 138.406 41.4967 137.747 42.51C137.114 43.5233 136.81 44.6887 136.835 46.006C136.81 47.298 137.114 48.4633 137.747 49.502C138.406 50.5153 139.305 51.326 140.445 51.934C141.585 52.5167 142.852 52.808 144.245 52.808Z"/>
<path d="M171.3 56.38C169.349 56.38 167.614 55.9367 166.094 55.05C164.574 54.138 163.371 52.8967 162.484 51.326C161.623 49.7553 161.192 47.9693 161.192 45.968C161.192 43.9667 161.635 42.1933 162.522 40.648C163.434 39.0773 164.675 37.8487 166.246 36.962C167.817 36.0753 169.603 35.632 171.604 35.632C172.82 35.632 173.935 35.7967 174.948 36.126C175.987 36.43 176.886 36.8607 177.646 37.418C178.406 37.9753 179.014 38.596 179.47 39.28C179.926 39.9387 180.179 40.6353 180.23 41.37L179.28 41.218V36.05H183.194V56H179.28V50.946L180.116 50.908C180.015 51.5413 179.711 52.1873 179.204 52.846C178.723 53.4793 178.064 54.062 177.228 54.594C176.417 55.126 175.505 55.5567 174.492 55.886C173.479 56.2153 172.415 56.38 171.3 56.38ZM172.288 52.77C173.681 52.77 174.91 52.4787 175.974 51.896C177.063 51.3133 177.912 50.5153 178.52 49.502C179.128 48.4633 179.432 47.2853 179.432 45.968C179.432 44.7013 179.128 43.5613 178.52 42.548C177.912 41.5347 177.063 40.7367 175.974 40.154C174.91 39.546 173.681 39.242 172.288 39.242C170.895 39.242 169.666 39.546 168.602 40.154C167.538 40.7367 166.702 41.5347 166.094 42.548C165.486 43.5613 165.182 44.7013 165.182 45.968C165.182 47.2853 165.486 48.4633 166.094 49.502C166.702 50.5153 167.538 51.3133 168.602 51.896C169.666 52.4787 170.895 52.77 172.288 52.77Z"/>
<path d="M201.071 56.38C199.019 56.38 197.207 55.9367 195.637 55.05C194.066 54.138 192.837 52.9093 191.951 51.364C191.064 49.7933 190.621 48.0073 190.621 46.006C190.621 44.0047 191.064 42.2313 191.951 40.686C192.863 39.1153 194.104 37.8867 195.675 37C197.271 36.088 199.082 35.632 201.109 35.632C202.299 35.632 203.414 35.7967 204.453 36.126C205.517 36.4553 206.454 36.8987 207.265 37.456C208.101 37.988 208.747 38.5833 209.203 39.242C209.659 39.8753 209.887 40.5087 209.887 41.142L208.747 41.218V27.88H212.661V56H208.747V50.946L209.507 51.06C209.507 51.668 209.266 52.276 208.785 52.884C208.329 53.492 207.708 54.062 206.923 54.594C206.137 55.126 205.238 55.5567 204.225 55.886C203.211 56.2153 202.16 56.38 201.071 56.38ZM201.755 52.922C203.148 52.922 204.377 52.618 205.441 52.01C206.53 51.402 207.379 50.5787 207.987 49.54C208.595 48.5013 208.899 47.3233 208.899 46.006C208.899 44.6887 208.595 43.5107 207.987 42.472C207.379 41.4333 206.53 40.6227 205.441 40.04C204.377 39.432 203.148 39.128 201.755 39.128C200.361 39.128 199.12 39.432 198.031 40.04C196.967 40.6227 196.131 41.4333 195.523 42.472C194.915 43.5107 194.611 44.6887 194.611 46.006C194.611 47.3233 194.915 48.5013 195.523 49.54C196.131 50.5787 196.967 51.402 198.031 52.01C199.12 52.618 200.361 52.922 201.755 52.922Z"/>
<path d="M235.762 56V29.4H239.6L257.992 51.174L257.536 51.516C257.409 50.832 257.308 50.0973 257.232 49.312C257.156 48.5013 257.08 47.6653 257.004 46.804C256.953 45.9173 256.903 45.0053 256.852 44.068C256.827 43.1053 256.801 42.13 256.776 41.142C256.776 40.154 256.776 39.1533 256.776 38.14V29.4H260.88V56H256.966L238.84 35.024L239.106 34.492C239.182 35.6067 239.258 36.62 239.334 37.532C239.41 38.4187 239.486 39.2293 239.562 39.964C239.638 40.6987 239.689 41.37 239.714 41.978C239.765 42.5607 239.803 43.1053 239.828 43.612C239.853 44.0933 239.866 44.5367 239.866 44.942V56H235.762Z"/>
<path d="M280.33 56.38C278.05 56.38 276.023 55.9493 274.25 55.088C272.476 54.2013 271.083 52.998 270.07 51.478C269.082 49.958 268.588 48.21 268.588 46.234C268.588 44.6127 268.879 43.156 269.462 41.864C270.044 40.572 270.842 39.4573 271.856 38.52C272.894 37.5827 274.11 36.8607 275.504 36.354C276.897 35.8473 278.392 35.594 279.988 35.594C281.432 35.594 282.774 35.8347 284.016 36.316C285.282 36.7973 286.384 37.4687 287.322 38.33C288.259 39.1913 288.981 40.2173 289.488 41.408C290.02 42.5733 290.273 43.8653 290.248 45.284L290.21 47.108H271.78L270.906 43.992H286.828L286.258 44.486V43.574C286.156 42.738 285.802 41.9907 285.194 41.332C284.586 40.6733 283.826 40.154 282.914 39.774C282.002 39.394 281.026 39.204 279.988 39.204C278.468 39.204 277.138 39.4447 275.998 39.926C274.883 40.4073 274.009 41.1547 273.376 42.168C272.768 43.156 272.464 44.4227 272.464 45.968C272.464 47.3613 272.818 48.5647 273.528 49.578C274.237 50.5913 275.225 51.3767 276.492 51.934C277.758 52.4913 279.215 52.77 280.862 52.77C282.28 52.77 283.509 52.5673 284.548 52.162C285.586 51.7567 286.574 51.1993 287.512 50.49L289.374 53.34C288.715 53.8973 287.892 54.4167 286.904 54.898C285.916 55.354 284.852 55.7213 283.712 56C282.597 56.2533 281.47 56.38 280.33 56.38Z"/>
<path d="M301.795 56L294.765 36.05L298.869 36.012L303.771 51.25L302.897 51.174L308.483 39.204H311.257L316.919 51.212L316.045 51.288L321.365 36.05H325.317L318.059 56H315.361L309.015 42.282L310.649 42.168L304.455 56H301.795Z"/>
<path d="M342.863 56L354.225 29.4H358.671L369.957 56H365.511L358.291 39.052C358.164 38.748 357.987 38.3047 357.759 37.722C357.556 37.114 357.328 36.468 357.075 35.784C356.821 35.1 356.581 34.454 356.353 33.846C356.125 33.2127 355.947 32.7187 355.821 32.364L356.847 32.326C356.669 32.8327 356.467 33.39 356.239 33.998C356.036 34.606 355.808 35.2267 355.555 35.86C355.327 36.4933 355.099 37.1013 354.871 37.684C354.643 38.2413 354.44 38.748 354.263 39.204L347.081 56H342.863ZM347.841 49.54L349.437 45.588H362.965L364.295 49.54H347.841Z"/>
<path d="M383.917 56.38C381.992 56.38 380.231 56.0887 378.635 55.506C377.065 54.9233 375.747 54.0113 374.683 52.77L377.343 50.414C378.205 51.326 379.18 52.01 380.269 52.466C381.384 52.922 382.613 53.15 383.955 53.15C384.487 53.15 385.019 53.0993 385.551 52.998C386.083 52.8967 386.565 52.7447 386.995 52.542C387.426 52.3393 387.768 52.0733 388.021 51.744C388.275 51.4147 388.401 51.0347 388.401 50.604C388.401 49.8693 387.971 49.2993 387.109 48.894C386.653 48.7167 386.096 48.5267 385.437 48.324C384.779 48.1213 384.006 47.9313 383.119 47.754C381.625 47.4247 380.333 47.0573 379.243 46.652C378.154 46.2213 377.28 45.702 376.621 45.094C376.14 44.6127 375.773 44.068 375.519 43.46C375.291 42.852 375.177 42.1553 375.177 41.37C375.177 40.534 375.38 39.7613 375.785 39.052C376.216 38.3427 376.811 37.7347 377.571 37.228C378.331 36.7213 379.218 36.3287 380.231 36.05C381.245 35.7713 382.334 35.632 383.499 35.632C384.538 35.632 385.589 35.7587 386.653 36.012C387.743 36.24 388.756 36.5947 389.693 37.076C390.656 37.532 391.454 38.1147 392.087 38.824L389.921 41.37C389.339 40.8887 388.68 40.458 387.945 40.078C387.236 39.698 386.501 39.4067 385.741 39.204C384.981 38.976 384.272 38.862 383.613 38.862C383.056 38.862 382.499 38.9127 381.941 39.014C381.384 39.09 380.89 39.2293 380.459 39.432C380.054 39.6093 379.725 39.85 379.471 40.154C379.218 40.458 379.091 40.8253 379.091 41.256C379.091 41.5853 379.167 41.8893 379.319 42.168C379.497 42.4213 379.725 42.6493 380.003 42.852C380.434 43.1307 381.017 43.384 381.751 43.612C382.486 43.84 383.36 44.0553 384.373 44.258C385.691 44.5367 386.856 44.866 387.869 45.246C388.908 45.6007 389.769 46.044 390.453 46.576C391.036 47.0067 391.467 47.526 391.745 48.134C392.049 48.742 392.201 49.4387 392.201 50.224C392.201 51.4653 391.821 52.5547 391.061 53.492C390.327 54.404 389.339 55.1133 388.097 55.62C386.856 56.1267 385.463 56.38 383.917 56.38Z"/>
<path d="M406.962 56.38C405.037 56.38 403.276 56.0887 401.68 55.506C400.109 54.9233 398.792 54.0113 397.728 52.77L400.388 50.414C401.25 51.326 402.225 52.01 403.314 52.466C404.429 52.922 405.658 53.15 407 53.15C407.532 53.15 408.064 53.0993 408.596 52.998C409.128 52.8967 409.61 52.7447 410.04 52.542C410.471 52.3393 410.813 52.0733 411.066 51.744C411.32 51.4147 411.446 51.0347 411.446 50.604C411.446 49.8693 411.016 49.2993 410.154 48.894C409.698 48.7167 409.141 48.5267 408.482 48.324C407.824 48.1213 407.051 47.9313 406.164 47.754C404.67 47.4247 403.378 47.0573 402.288 46.652C401.199 46.2213 400.325 45.702 399.666 45.094C399.185 44.6127 398.818 44.068 398.564 43.46C398.336 42.852 398.222 42.1553 398.222 41.37C398.222 40.534 398.425 39.7613 398.83 39.052C399.261 38.3427 399.856 37.7347 400.616 37.228C401.376 36.7213 402.263 36.3287 403.276 36.05C404.29 35.7713 405.379 35.632 406.544 35.632C407.583 35.632 408.634 35.7587 409.698 36.012C410.788 36.24 411.801 36.5947 412.738 37.076C413.701 37.532 414.499 38.1147 415.132 38.824L412.966 41.37C412.384 40.8887 411.725 40.458 410.99 40.078C410.281 39.698 409.546 39.4067 408.786 39.204C408.026 38.976 407.317 38.862 406.658 38.862C406.101 38.862 405.544 38.9127 404.986 39.014C404.429 39.09 403.935 39.2293 403.504 39.432C403.099 39.6093 402.77 39.85 402.516 40.154C402.263 40.458 402.136 40.8253 402.136 41.256C402.136 41.5853 402.212 41.8893 402.364 42.168C402.542 42.4213 402.77 42.6493 403.048 42.852C403.479 43.1307 404.061 43.384 404.796 43.612C405.531 43.84 406.405 44.0553 407.418 44.258C408.736 44.5367 409.901 44.866 410.914 45.246C411.953 45.6007 412.814 46.044 413.498 46.576C414.081 47.0067 414.512 47.526 414.79 48.134C415.094 48.742 415.246 49.4387 415.246 50.224C415.246 51.4653 414.866 52.5547 414.106 53.492C413.372 54.404 412.384 55.1133 411.142 55.62C409.901 56.1267 408.508 56.38 406.962 56.38Z"/>
<path d="M423.395 56V36.05H427.309V56H423.395ZM425.295 31.49C424.459 31.49 423.813 31.2747 423.357 30.844C422.901 30.4133 422.673 29.8053 422.673 29.02C422.673 28.2853 422.901 27.69 423.357 27.234C423.838 26.778 424.484 26.55 425.295 26.55C426.131 26.55 426.777 26.7653 427.233 27.196C427.689 27.6267 427.917 28.2347 427.917 29.02C427.917 29.7547 427.676 30.35 427.195 30.806C426.739 31.262 426.106 31.49 425.295 31.49Z"/>
<path d="M447.139 64.74C445.366 64.74 443.732 64.512 442.237 64.056C440.742 63.6 439.539 63.03 438.627 62.346L440.033 59.23C440.565 59.5593 441.198 59.876 441.933 60.18C442.668 60.484 443.478 60.7373 444.365 60.94C445.252 61.1427 446.176 61.244 447.139 61.244C448.558 61.244 449.774 60.9907 450.787 60.484C451.8 59.9773 452.586 59.23 453.143 58.242C453.7 57.254 453.979 56.0507 453.979 54.632V51.402L454.397 51.668C454.245 52.428 453.751 53.1753 452.915 53.91C452.104 54.6193 451.078 55.2147 449.837 55.696C448.621 56.152 447.342 56.38 445.999 56.38C443.947 56.38 442.123 55.9367 440.527 55.05C438.956 54.138 437.715 52.9093 436.803 51.364C435.891 49.7933 435.435 48.0073 435.435 46.006C435.435 44.0047 435.891 42.2313 436.803 40.686C437.74 39.1153 439.02 37.8867 440.641 37C442.262 36.088 444.112 35.632 446.189 35.632C446.873 35.632 447.595 35.7207 448.355 35.898C449.14 36.0753 449.9 36.3287 450.635 36.658C451.37 36.962 452.041 37.3167 452.649 37.722C453.257 38.1273 453.751 38.5707 454.131 39.052C454.536 39.508 454.764 39.964 454.815 40.42L453.979 40.724V36.05H457.893V54.176C457.893 55.924 457.614 57.444 457.057 58.736C456.525 60.0533 455.778 61.1553 454.815 62.042C453.852 62.9287 452.712 63.6 451.395 64.056C450.078 64.512 448.659 64.74 447.139 64.74ZM446.873 52.77C448.292 52.77 449.546 52.4787 450.635 51.896C451.75 51.3133 452.611 50.5153 453.219 49.502C453.827 48.4887 454.131 47.3233 454.131 46.006C454.131 44.6887 453.814 43.5233 453.181 42.51C452.573 41.4713 451.724 40.6607 450.635 40.078C449.546 39.4953 448.292 39.204 446.873 39.204C445.429 39.204 444.15 39.508 443.035 40.116C441.92 40.6987 441.034 41.5093 440.375 42.548C439.742 43.5613 439.425 44.714 439.425 46.006C439.425 47.298 439.742 48.4633 440.375 49.502C441.034 50.5153 441.92 51.3133 443.035 51.896C444.15 52.4787 445.429 52.77 446.873 52.77Z"/>
<path d="M467.546 56V36.05H471.46V40.762L470.472 41.066C470.852 40.154 471.448 39.2927 472.258 38.482C473.069 37.646 474.032 36.962 475.146 36.43C476.286 35.898 477.49 35.632 478.756 35.632C480.504 35.632 481.961 35.974 483.126 36.658C484.317 37.3167 485.204 38.2667 485.786 39.508C486.369 40.7493 486.66 42.244 486.66 43.992V56H482.746V44.41C482.746 43.27 482.531 42.32 482.1 41.56C481.695 40.7747 481.1 40.192 480.314 39.812C479.554 39.4067 478.655 39.2167 477.616 39.242C476.73 39.242 475.906 39.394 475.146 39.698C474.412 40.002 473.766 40.4073 473.208 40.914C472.651 41.4207 472.22 41.9907 471.916 42.624C471.612 43.232 471.46 43.8653 471.46 44.524V56H469.522C469.066 56 468.674 56 468.344 56C468.015 56 467.749 56 467.546 56Z"/>
<path d="M496.187 56V36.05H500.139V40.914L499.113 41.066C499.315 40.458 499.67 39.8373 500.177 39.204C500.683 38.5707 501.317 38.0007 502.077 37.494C502.837 36.962 503.673 36.5313 504.585 36.202C505.522 35.8727 506.523 35.708 507.587 35.708C508.828 35.708 509.943 35.9107 510.931 36.316C511.919 36.7213 512.717 37.342 513.325 38.178C513.958 39.014 514.376 40.0527 514.579 41.294L513.667 41.066L513.933 40.42C514.237 39.888 514.655 39.356 515.187 38.824C515.744 38.2667 516.39 37.76 517.125 37.304C517.885 36.8227 518.695 36.4427 519.557 36.164C520.418 35.86 521.305 35.708 522.217 35.708C523.99 35.708 525.421 36.05 526.511 36.734C527.6 37.418 528.398 38.3933 528.905 39.66C529.411 40.9267 529.665 42.434 529.665 44.182V56H525.713V44.562C525.713 43.422 525.548 42.472 525.219 41.712C524.915 40.9267 524.433 40.3313 523.775 39.926C523.116 39.5207 522.255 39.318 521.191 39.318C520.304 39.318 519.468 39.47 518.683 39.774C517.923 40.0527 517.251 40.458 516.669 40.99C516.086 41.4967 515.63 42.092 515.301 42.776C514.997 43.46 514.845 44.1947 514.845 44.98V56H510.893V44.486C510.893 43.422 510.715 42.51 510.361 41.75C510.006 40.9647 509.474 40.3693 508.765 39.964C508.055 39.5333 507.156 39.318 506.067 39.318C505.205 39.318 504.42 39.47 503.711 39.774C503.001 40.078 502.368 40.4833 501.811 40.99C501.279 41.4967 500.861 42.0667 500.557 42.7C500.278 43.308 500.139 43.9413 500.139 44.6V56H496.187Z"/>
<path d="M548.705 56.38C546.425 56.38 544.398 55.9493 542.625 55.088C540.851 54.2013 539.458 52.998 538.445 51.478C537.457 49.958 536.963 48.21 536.963 46.234C536.963 44.6127 537.254 43.156 537.837 41.864C538.419 40.572 539.217 39.4573 540.231 38.52C541.269 37.5827 542.485 36.8607 543.879 36.354C545.272 35.8473 546.767 35.594 548.363 35.594C549.807 35.594 551.149 35.8347 552.391 36.316C553.657 36.7973 554.759 37.4687 555.697 38.33C556.634 39.1913 557.356 40.2173 557.863 41.408C558.395 42.5733 558.648 43.8653 558.623 45.284L558.585 47.108H540.155L539.281 43.992H555.203L554.633 44.486V43.574C554.531 42.738 554.177 41.9907 553.569 41.332C552.961 40.6733 552.201 40.154 551.289 39.774C550.377 39.394 549.401 39.204 548.363 39.204C546.843 39.204 545.513 39.4447 544.373 39.926C543.258 40.4073 542.384 41.1547 541.751 42.168C541.143 43.156 540.839 44.4227 540.839 45.968C540.839 47.3613 541.193 48.5647 541.903 49.578C542.612 50.5913 543.6 51.3767 544.867 51.934C546.133 52.4913 547.59 52.77 549.237 52.77C550.655 52.77 551.884 52.5673 552.923 52.162C553.961 51.7567 554.949 51.1993 555.887 50.49L557.749 53.34C557.09 53.8973 556.267 54.4167 555.279 54.898C554.291 55.354 553.227 55.7213 552.087 56C550.972 56.2533 549.845 56.38 548.705 56.38Z"/>
<path d="M566.703 56V36.05H570.617V40.762L569.629 41.066C570.009 40.154 570.604 39.2927 571.415 38.482C572.225 37.646 573.188 36.962 574.303 36.43C575.443 35.898 576.646 35.632 577.913 35.632C579.661 35.632 581.117 35.974 582.283 36.658C583.473 37.3167 584.36 38.2667 584.943 39.508C585.525 40.7493 585.817 42.244 585.817 43.992V56H581.903V44.41C581.903 43.27 581.687 42.32 581.257 41.56C580.851 40.7747 580.256 40.192 579.471 39.812C578.711 39.4067 577.811 39.2167 576.773 39.242C575.886 39.242 575.063 39.394 574.303 39.698C573.568 40.002 572.922 40.4073 572.365 40.914C571.807 41.4207 571.377 41.9907 571.073 42.624C570.769 43.232 570.617 43.8653 570.617 44.524V56H568.679C568.223 56 567.83 56 567.501 56C567.171 56 566.905 56 566.703 56Z"/>
<path d="M598.307 56V30.502H602.221V56H598.307ZM593.253 39.85V36.05H608.073V39.85H593.253Z"/>
</mask>
<path d="M5 1H660V85H5V1Z" fill="#E69A64"/>
<path d="M70.5206 56.228C68.2152 56.228 66.1759 55.734 64.4026 54.746C62.6292 53.758 61.2359 52.4027 60.2226 50.68C59.2346 48.932 58.7406 46.9687 58.7406 44.79V29.362H62.8446V44.524C62.8446 45.9933 63.1866 47.3107 63.8706 48.476C64.5799 49.6413 65.5046 50.566 66.6446 51.25C67.8099 51.934 69.1019 52.276 70.5206 52.276C72.0152 52.276 73.3452 51.934 74.5106 51.25C75.7012 50.566 76.6386 49.6413 77.3226 48.476C78.0319 47.3107 78.3866 45.9933 78.3866 44.524V29.362H82.3006V44.79C82.3006 46.9687 81.7939 48.932 80.7806 50.68C79.7926 52.4027 78.4119 53.758 76.6386 54.746C74.8652 55.734 72.8259 56.228 70.5206 56.228Z" fill="black"/>
<path d="M91.8882 64.36V36.05H95.8402V40.61L95.2322 40.268C95.4095 39.5333 95.8908 38.824 96.6762 38.14C97.4868 37.4307 98.4748 36.848 99.6402 36.392C100.831 35.936 102.072 35.708 103.364 35.708C105.416 35.708 107.215 36.1513 108.76 37.038C110.305 37.9247 111.521 39.1407 112.408 40.686C113.295 42.2313 113.738 44.0047 113.738 46.006C113.738 47.982 113.295 49.7553 112.408 51.326C111.547 52.8713 110.331 54.1 108.76 55.012C107.215 55.8987 105.454 56.342 103.478 56.342C102.085 56.342 100.767 56.1013 99.5262 55.62C98.2848 55.1133 97.2462 54.4927 96.4102 53.758C95.5742 53.0233 95.0548 52.2887 94.8522 51.554L95.8402 51.022V64.36H91.8882ZM102.832 52.732C104.225 52.732 105.454 52.4407 106.518 51.858C107.582 51.2753 108.418 50.4773 109.026 49.464C109.659 48.4507 109.976 47.298 109.976 46.006C109.976 44.714 109.672 43.574 109.064 42.586C108.456 41.5727 107.62 40.7747 106.556 40.192C105.492 39.6093 104.251 39.318 102.832 39.318C101.439 39.318 100.197 39.6093 99.1082 40.192C98.0442 40.7493 97.1955 41.5347 96.5622 42.548C95.9542 43.5613 95.6502 44.714 95.6502 46.006C95.6502 47.298 95.9542 48.4507 96.5622 49.464C97.1955 50.4773 98.0442 51.2753 99.1082 51.858C100.197 52.4407 101.439 52.732 102.832 52.732Z" fill="black"/>
<path d="M121.499 56V27.88H125.413V56H121.499Z" fill="black"/>
<path d="M144.245 56.38C142.041 56.38 140.078 55.9367 138.355 55.05C136.658 54.138 135.315 52.9093 134.327 51.364C133.339 49.7933 132.845 48.0073 132.845 46.006C132.845 44.0047 133.339 42.2313 134.327 40.686C135.315 39.1153 136.658 37.8867 138.355 37C140.078 36.088 142.041 35.632 144.245 35.632C146.424 35.632 148.362 36.088 150.059 37C151.782 37.8867 153.137 39.1153 154.125 40.686C155.113 42.2313 155.607 44.0047 155.607 46.006C155.607 48.0073 155.113 49.7933 154.125 51.364C153.137 52.9093 151.782 54.138 150.059 55.05C148.362 55.9367 146.424 56.38 144.245 56.38ZM144.245 52.808C145.638 52.808 146.892 52.5167 148.007 51.934C149.147 51.326 150.034 50.5153 150.667 49.502C151.326 48.4633 151.642 47.298 151.617 46.006C151.642 44.6887 151.326 43.5233 150.667 42.51C150.034 41.4713 149.147 40.6607 148.007 40.078C146.892 39.4953 145.638 39.204 144.245 39.204C142.852 39.204 141.585 39.508 140.445 40.116C139.305 40.6987 138.406 41.4967 137.747 42.51C137.114 43.5233 136.81 44.6887 136.835 46.006C136.81 47.298 137.114 48.4633 137.747 49.502C138.406 50.5153 139.305 51.326 140.445 51.934C141.585 52.5167 142.852 52.808 144.245 52.808Z" fill="black"/>
<path d="M171.3 56.38C169.349 56.38 167.614 55.9367 166.094 55.05C164.574 54.138 163.371 52.8967 162.484 51.326C161.623 49.7553 161.192 47.9693 161.192 45.968C161.192 43.9667 161.635 42.1933 162.522 40.648C163.434 39.0773 164.675 37.8487 166.246 36.962C167.817 36.0753 169.603 35.632 171.604 35.632C172.82 35.632 173.935 35.7967 174.948 36.126C175.987 36.43 176.886 36.8607 177.646 37.418C178.406 37.9753 179.014 38.596 179.47 39.28C179.926 39.9387 180.179 40.6353 180.23 41.37L179.28 41.218V36.05H183.194V56H179.28V50.946L180.116 50.908C180.015 51.5413 179.711 52.1873 179.204 52.846C178.723 53.4793 178.064 54.062 177.228 54.594C176.417 55.126 175.505 55.5567 174.492 55.886C173.479 56.2153 172.415 56.38 171.3 56.38ZM172.288 52.77C173.681 52.77 174.91 52.4787 175.974 51.896C177.063 51.3133 177.912 50.5153 178.52 49.502C179.128 48.4633 179.432 47.2853 179.432 45.968C179.432 44.7013 179.128 43.5613 178.52 42.548C177.912 41.5347 177.063 40.7367 175.974 40.154C174.91 39.546 173.681 39.242 172.288 39.242C170.895 39.242 169.666 39.546 168.602 40.154C167.538 40.7367 166.702 41.5347 166.094 42.548C165.486 43.5613 165.182 44.7013 165.182 45.968C165.182 47.2853 165.486 48.4633 166.094 49.502C166.702 50.5153 167.538 51.3133 168.602 51.896C169.666 52.4787 170.895 52.77 172.288 52.77Z" fill="black"/>
<path d="M201.071 56.38C199.019 56.38 197.207 55.9367 195.637 55.05C194.066 54.138 192.837 52.9093 191.951 51.364C191.064 49.7933 190.621 48.0073 190.621 46.006C190.621 44.0047 191.064 42.2313 191.951 40.686C192.863 39.1153 194.104 37.8867 195.675 37C197.271 36.088 199.082 35.632 201.109 35.632C202.299 35.632 203.414 35.7967 204.453 36.126C205.517 36.4553 206.454 36.8987 207.265 37.456C208.101 37.988 208.747 38.5833 209.203 39.242C209.659 39.8753 209.887 40.5087 209.887 41.142L208.747 41.218V27.88H212.661V56H208.747V50.946L209.507 51.06C209.507 51.668 209.266 52.276 208.785 52.884C208.329 53.492 207.708 54.062 206.923 54.594C206.137 55.126 205.238 55.5567 204.225 55.886C203.211 56.2153 202.16 56.38 201.071 56.38ZM201.755 52.922C203.148 52.922 204.377 52.618 205.441 52.01C206.53 51.402 207.379 50.5787 207.987 49.54C208.595 48.5013 208.899 47.3233 208.899 46.006C208.899 44.6887 208.595 43.5107 207.987 42.472C207.379 41.4333 206.53 40.6227 205.441 40.04C204.377 39.432 203.148 39.128 201.755 39.128C200.361 39.128 199.12 39.432 198.031 40.04C196.967 40.6227 196.131 41.4333 195.523 42.472C194.915 43.5107 194.611 44.6887 194.611 46.006C194.611 47.3233 194.915 48.5013 195.523 49.54C196.131 50.5787 196.967 51.402 198.031 52.01C199.12 52.618 200.361 52.922 201.755 52.922Z" fill="black"/>
<path d="M235.762 56V29.4H239.6L257.992 51.174L257.536 51.516C257.409 50.832 257.308 50.0973 257.232 49.312C257.156 48.5013 257.08 47.6653 257.004 46.804C256.953 45.9173 256.903 45.0053 256.852 44.068C256.827 43.1053 256.801 42.13 256.776 41.142C256.776 40.154 256.776 39.1533 256.776 38.14V29.4H260.88V56H256.966L238.84 35.024L239.106 34.492C239.182 35.6067 239.258 36.62 239.334 37.532C239.41 38.4187 239.486 39.2293 239.562 39.964C239.638 40.6987 239.689 41.37 239.714 41.978C239.765 42.5607 239.803 43.1053 239.828 43.612C239.853 44.0933 239.866 44.5367 239.866 44.942V56H235.762Z" fill="black"/>
<path d="M280.33 56.38C278.05 56.38 276.023 55.9493 274.25 55.088C272.476 54.2013 271.083 52.998 270.07 51.478C269.082 49.958 268.588 48.21 268.588 46.234C268.588 44.6127 268.879 43.156 269.462 41.864C270.044 40.572 270.842 39.4573 271.856 38.52C272.894 37.5827 274.11 36.8607 275.504 36.354C276.897 35.8473 278.392 35.594 279.988 35.594C281.432 35.594 282.774 35.8347 284.016 36.316C285.282 36.7973 286.384 37.4687 287.322 38.33C288.259 39.1913 288.981 40.2173 289.488 41.408C290.02 42.5733 290.273 43.8653 290.248 45.284L290.21 47.108H271.78L270.906 43.992H286.828L286.258 44.486V43.574C286.156 42.738 285.802 41.9907 285.194 41.332C284.586 40.6733 283.826 40.154 282.914 39.774C282.002 39.394 281.026 39.204 279.988 39.204C278.468 39.204 277.138 39.4447 275.998 39.926C274.883 40.4073 274.009 41.1547 273.376 42.168C272.768 43.156 272.464 44.4227 272.464 45.968C272.464 47.3613 272.818 48.5647 273.528 49.578C274.237 50.5913 275.225 51.3767 276.492 51.934C277.758 52.4913 279.215 52.77 280.862 52.77C282.28 52.77 283.509 52.5673 284.548 52.162C285.586 51.7567 286.574 51.1993 287.512 50.49L289.374 53.34C288.715 53.8973 287.892 54.4167 286.904 54.898C285.916 55.354 284.852 55.7213 283.712 56C282.597 56.2533 281.47 56.38 280.33 56.38Z" fill="black"/>
<path d="M301.795 56L294.765 36.05L298.869 36.012L303.771 51.25L302.897 51.174L308.483 39.204H311.257L316.919 51.212L316.045 51.288L321.365 36.05H325.317L318.059 56H315.361L309.015 42.282L310.649 42.168L304.455 56H301.795Z" fill="black"/>
<path d="M342.863 56L354.225 29.4H358.671L369.957 56H365.511L358.291 39.052C358.164 38.748 357.987 38.3047 357.759 37.722C357.556 37.114 357.328 36.468 357.075 35.784C356.821 35.1 356.581 34.454 356.353 33.846C356.125 33.2127 355.947 32.7187 355.821 32.364L356.847 32.326C356.669 32.8327 356.467 33.39 356.239 33.998C356.036 34.606 355.808 35.2267 355.555 35.86C355.327 36.4933 355.099 37.1013 354.871 37.684C354.643 38.2413 354.44 38.748 354.263 39.204L347.081 56H342.863ZM347.841 49.54L349.437 45.588H362.965L364.295 49.54H347.841Z" fill="black"/>
<path d="M383.917 56.38C381.992 56.38 380.231 56.0887 378.635 55.506C377.065 54.9233 375.747 54.0113 374.683 52.77L377.343 50.414C378.205 51.326 379.18 52.01 380.269 52.466C381.384 52.922 382.613 53.15 383.955 53.15C384.487 53.15 385.019 53.0993 385.551 52.998C386.083 52.8967 386.565 52.7447 386.995 52.542C387.426 52.3393 387.768 52.0733 388.021 51.744C388.275 51.4147 388.401 51.0347 388.401 50.604C388.401 49.8693 387.971 49.2993 387.109 48.894C386.653 48.7167 386.096 48.5267 385.437 48.324C384.779 48.1213 384.006 47.9313 383.119 47.754C381.625 47.4247 380.333 47.0573 379.243 46.652C378.154 46.2213 377.28 45.702 376.621 45.094C376.14 44.6127 375.773 44.068 375.519 43.46C375.291 42.852 375.177 42.1553 375.177 41.37C375.177 40.534 375.38 39.7613 375.785 39.052C376.216 38.3427 376.811 37.7347 377.571 37.228C378.331 36.7213 379.218 36.3287 380.231 36.05C381.245 35.7713 382.334 35.632 383.499 35.632C384.538 35.632 385.589 35.7587 386.653 36.012C387.743 36.24 388.756 36.5947 389.693 37.076C390.656 37.532 391.454 38.1147 392.087 38.824L389.921 41.37C389.339 40.8887 388.68 40.458 387.945 40.078C387.236 39.698 386.501 39.4067 385.741 39.204C384.981 38.976 384.272 38.862 383.613 38.862C383.056 38.862 382.499 38.9127 381.941 39.014C381.384 39.09 380.89 39.2293 380.459 39.432C380.054 39.6093 379.725 39.85 379.471 40.154C379.218 40.458 379.091 40.8253 379.091 41.256C379.091 41.5853 379.167 41.8893 379.319 42.168C379.497 42.4213 379.725 42.6493 380.003 42.852C380.434 43.1307 381.017 43.384 381.751 43.612C382.486 43.84 383.36 44.0553 384.373 44.258C385.691 44.5367 386.856 44.866 387.869 45.246C388.908 45.6007 389.769 46.044 390.453 46.576C391.036 47.0067 391.467 47.526 391.745 48.134C392.049 48.742 392.201 49.4387 392.201 50.224C392.201 51.4653 391.821 52.5547 391.061 53.492C390.327 54.404 389.339 55.1133 388.097 55.62C386.856 56.1267 385.463 56.38 383.917 56.38Z" fill="black"/>
<path d="M406.962 56.38C405.037 56.38 403.276 56.0887 401.68 55.506C400.109 54.9233 398.792 54.0113 397.728 52.77L400.388 50.414C401.25 51.326 402.225 52.01 403.314 52.466C404.429 52.922 405.658 53.15 407 53.15C407.532 53.15 408.064 53.0993 408.596 52.998C409.128 52.8967 409.61 52.7447 410.04 52.542C410.471 52.3393 410.813 52.0733 411.066 51.744C411.32 51.4147 411.446 51.0347 411.446 50.604C411.446 49.8693 411.016 49.2993 410.154 48.894C409.698 48.7167 409.141 48.5267 408.482 48.324C407.824 48.1213 407.051 47.9313 406.164 47.754C404.67 47.4247 403.378 47.0573 402.288 46.652C401.199 46.2213 400.325 45.702 399.666 45.094C399.185 44.6127 398.818 44.068 398.564 43.46C398.336 42.852 398.222 42.1553 398.222 41.37C398.222 40.534 398.425 39.7613 398.83 39.052C399.261 38.3427 399.856 37.7347 400.616 37.228C401.376 36.7213 402.263 36.3287 403.276 36.05C404.29 35.7713 405.379 35.632 406.544 35.632C407.583 35.632 408.634 35.7587 409.698 36.012C410.788 36.24 411.801 36.5947 412.738 37.076C413.701 37.532 414.499 38.1147 415.132 38.824L412.966 41.37C412.384 40.8887 411.725 40.458 410.99 40.078C410.281 39.698 409.546 39.4067 408.786 39.204C408.026 38.976 407.317 38.862 406.658 38.862C406.101 38.862 405.544 38.9127 404.986 39.014C404.429 39.09 403.935 39.2293 403.504 39.432C403.099 39.6093 402.77 39.85 402.516 40.154C402.263 40.458 402.136 40.8253 402.136 41.256C402.136 41.5853 402.212 41.8893 402.364 42.168C402.542 42.4213 402.77 42.6493 403.048 42.852C403.479 43.1307 404.061 43.384 404.796 43.612C405.531 43.84 406.405 44.0553 407.418 44.258C408.736 44.5367 409.901 44.866 410.914 45.246C411.953 45.6007 412.814 46.044 413.498 46.576C414.081 47.0067 414.512 47.526 414.79 48.134C415.094 48.742 415.246 49.4387 415.246 50.224C415.246 51.4653 414.866 52.5547 414.106 53.492C413.372 54.404 412.384 55.1133 411.142 55.62C409.901 56.1267 408.508 56.38 406.962 56.38Z" fill="black"/>
<path d="M423.395 56V36.05H427.309V56H423.395ZM425.295 31.49C424.459 31.49 423.813 31.2747 423.357 30.844C422.901 30.4133 422.673 29.8053 422.673 29.02C422.673 28.2853 422.901 27.69 423.357 27.234C423.838 26.778 424.484 26.55 425.295 26.55C426.131 26.55 426.777 26.7653 427.233 27.196C427.689 27.6267 427.917 28.2347 427.917 29.02C427.917 29.7547 427.676 30.35 427.195 30.806C426.739 31.262 426.106 31.49 425.295 31.49Z" fill="black"/>
<path d="M447.139 64.74C445.366 64.74 443.732 64.512 442.237 64.056C440.742 63.6 439.539 63.03 438.627 62.346L440.033 59.23C440.565 59.5593 441.198 59.876 441.933 60.18C442.668 60.484 443.478 60.7373 444.365 60.94C445.252 61.1427 446.176 61.244 447.139 61.244C448.558 61.244 449.774 60.9907 450.787 60.484C451.8 59.9773 452.586 59.23 453.143 58.242C453.7 57.254 453.979 56.0507 453.979 54.632V51.402L454.397 51.668C454.245 52.428 453.751 53.1753 452.915 53.91C452.104 54.6193 451.078 55.2147 449.837 55.696C448.621 56.152 447.342 56.38 445.999 56.38C443.947 56.38 442.123 55.9367 440.527 55.05C438.956 54.138 437.715 52.9093 436.803 51.364C435.891 49.7933 435.435 48.0073 435.435 46.006C435.435 44.0047 435.891 42.2313 436.803 40.686C437.74 39.1153 439.02 37.8867 440.641 37C442.262 36.088 444.112 35.632 446.189 35.632C446.873 35.632 447.595 35.7207 448.355 35.898C449.14 36.0753 449.9 36.3287 450.635 36.658C451.37 36.962 452.041 37.3167 452.649 37.722C453.257 38.1273 453.751 38.5707 454.131 39.052C454.536 39.508 454.764 39.964 454.815 40.42L453.979 40.724V36.05H457.893V54.176C457.893 55.924 457.614 57.444 457.057 58.736C456.525 60.0533 455.778 61.1553 454.815 62.042C453.852 62.9287 452.712 63.6 451.395 64.056C450.078 64.512 448.659 64.74 447.139 64.74ZM446.873 52.77C448.292 52.77 449.546 52.4787 450.635 51.896C451.75 51.3133 452.611 50.5153 453.219 49.502C453.827 48.4887 454.131 47.3233 454.131 46.006C454.131 44.6887 453.814 43.5233 453.181 42.51C452.573 41.4713 451.724 40.6607 450.635 40.078C449.546 39.4953 448.292 39.204 446.873 39.204C445.429 39.204 444.15 39.508 443.035 40.116C441.92 40.6987 441.034 41.5093 440.375 42.548C439.742 43.5613 439.425 44.714 439.425 46.006C439.425 47.298 439.742 48.4633 440.375 49.502C441.034 50.5153 441.92 51.3133 443.035 51.896C444.15 52.4787 445.429 52.77 446.873 52.77Z" fill="black"/>
<path d="M467.546 56V36.05H471.46V40.762L470.472 41.066C470.852 40.154 471.448 39.2927 472.258 38.482C473.069 37.646 474.032 36.962 475.146 36.43C476.286 35.898 477.49 35.632 478.756 35.632C480.504 35.632 481.961 35.974 483.126 36.658C484.317 37.3167 485.204 38.2667 485.786 39.508C486.369 40.7493 486.66 42.244 486.66 43.992V56H482.746V44.41C482.746 43.27 482.531 42.32 482.1 41.56C481.695 40.7747 481.1 40.192 480.314 39.812C479.554 39.4067 478.655 39.2167 477.616 39.242C476.73 39.242 475.906 39.394 475.146 39.698C474.412 40.002 473.766 40.4073 473.208 40.914C472.651 41.4207 472.22 41.9907 471.916 42.624C471.612 43.232 471.46 43.8653 471.46 44.524V56H469.522C469.066 56 468.674 56 468.344 56C468.015 56 467.749 56 467.546 56Z" fill="black"/>
<path d="M496.187 56V36.05H500.139V40.914L499.113 41.066C499.315 40.458 499.67 39.8373 500.177 39.204C500.683 38.5707 501.317 38.0007 502.077 37.494C502.837 36.962 503.673 36.5313 504.585 36.202C505.522 35.8727 506.523 35.708 507.587 35.708C508.828 35.708 509.943 35.9107 510.931 36.316C511.919 36.7213 512.717 37.342 513.325 38.178C513.958 39.014 514.376 40.0527 514.579 41.294L513.667 41.066L513.933 40.42C514.237 39.888 514.655 39.356 515.187 38.824C515.744 38.2667 516.39 37.76 517.125 37.304C517.885 36.8227 518.695 36.4427 519.557 36.164C520.418 35.86 521.305 35.708 522.217 35.708C523.99 35.708 525.421 36.05 526.511 36.734C527.6 37.418 528.398 38.3933 528.905 39.66C529.411 40.9267 529.665 42.434 529.665 44.182V56H525.713V44.562C525.713 43.422 525.548 42.472 525.219 41.712C524.915 40.9267 524.433 40.3313 523.775 39.926C523.116 39.5207 522.255 39.318 521.191 39.318C520.304 39.318 519.468 39.47 518.683 39.774C517.923 40.0527 517.251 40.458 516.669 40.99C516.086 41.4967 515.63 42.092 515.301 42.776C514.997 43.46 514.845 44.1947 514.845 44.98V56H510.893V44.486C510.893 43.422 510.715 42.51 510.361 41.75C510.006 40.9647 509.474 40.3693 508.765 39.964C508.055 39.5333 507.156 39.318 506.067 39.318C505.205 39.318 504.42 39.47 503.711 39.774C503.001 40.078 502.368 40.4833 501.811 40.99C501.279 41.4967 500.861 42.0667 500.557 42.7C500.278 43.308 500.139 43.9413 500.139 44.6V56H496.187Z" fill="black"/>
<path d="M548.705 56.38C546.425 56.38 544.398 55.9493 542.625 55.088C540.851 54.2013 539.458 52.998 538.445 51.478C537.457 49.958 536.963 48.21 536.963 46.234C536.963 44.6127 537.254 43.156 537.837 41.864C538.419 40.572 539.217 39.4573 540.231 38.52C541.269 37.5827 542.485 36.8607 543.879 36.354C545.272 35.8473 546.767 35.594 548.363 35.594C549.807 35.594 551.149 35.8347 552.391 36.316C553.657 36.7973 554.759 37.4687 555.697 38.33C556.634 39.1913 557.356 40.2173 557.863 41.408C558.395 42.5733 558.648 43.8653 558.623 45.284L558.585 47.108H540.155L539.281 43.992H555.203L554.633 44.486V43.574C554.531 42.738 554.177 41.9907 553.569 41.332C552.961 40.6733 552.201 40.154 551.289 39.774C550.377 39.394 549.401 39.204 548.363 39.204C546.843 39.204 545.513 39.4447 544.373 39.926C543.258 40.4073 542.384 41.1547 541.751 42.168C541.143 43.156 540.839 44.4227 540.839 45.968C540.839 47.3613 541.193 48.5647 541.903 49.578C542.612 50.5913 543.6 51.3767 544.867 51.934C546.133 52.4913 547.59 52.77 549.237 52.77C550.655 52.77 551.884 52.5673 552.923 52.162C553.961 51.7567 554.949 51.1993 555.887 50.49L557.749 53.34C557.09 53.8973 556.267 54.4167 555.279 54.898C554.291 55.354 553.227 55.7213 552.087 56C550.972 56.2533 549.845 56.38 548.705 56.38Z" fill="black"/>
<path d="M566.703 56V36.05H570.617V40.762L569.629 41.066C570.009 40.154 570.604 39.2927 571.415 38.482C572.225 37.646 573.188 36.962 574.303 36.43C575.443 35.898 576.646 35.632 577.913 35.632C579.661 35.632 581.117 35.974 582.283 36.658C583.473 37.3167 584.36 38.2667 584.943 39.508C585.525 40.7493 585.817 42.244 585.817 43.992V56H581.903V44.41C581.903 43.27 581.687 42.32 581.257 41.56C580.851 40.7747 580.256 40.192 579.471 39.812C578.711 39.4067 577.811 39.2167 576.773 39.242C575.886 39.242 575.063 39.394 574.303 39.698C573.568 40.002 572.922 40.4073 572.365 40.914C571.807 41.4207 571.377 41.9907 571.073 42.624C570.769 43.232 570.617 43.8653 570.617 44.524V56H568.679C568.223 56 567.83 56 567.501 56C567.171 56 566.905 56 566.703 56Z" fill="black"/>
<path d="M598.307 56V30.502H602.221V56H598.307ZM593.253 39.85V36.05H608.073V39.85H593.253Z" fill="black"/>
<path d="M5 1H660V85H5V1Z" stroke="black" stroke-width="2" mask="url(#path-1-outside-1_127_223)"/>
<path d="M70.5206 56.228C68.2152 56.228 66.1759 55.734 64.4026 54.746C62.6292 53.758 61.2359 52.4027 60.2226 50.68C59.2346 48.932 58.7406 46.9687 58.7406 44.79V29.362H62.8446V44.524C62.8446 45.9933 63.1866 47.3107 63.8706 48.476C64.5799 49.6413 65.5046 50.566 66.6446 51.25C67.8099 51.934 69.1019 52.276 70.5206 52.276C72.0152 52.276 73.3452 51.934 74.5106 51.25C75.7012 50.566 76.6386 49.6413 77.3226 48.476C78.0319 47.3107 78.3866 45.9933 78.3866 44.524V29.362H82.3006V44.79C82.3006 46.9687 81.7939 48.932 80.7806 50.68C79.7926 52.4027 78.4119 53.758 76.6386 54.746C74.8652 55.734 72.8259 56.228 70.5206 56.228Z" stroke="black" stroke-width="2" mask="url(#path-1-outside-1_127_223)"/>
<path d="M91.8882 64.36V36.05H95.8402V40.61L95.2322 40.268C95.4095 39.5333 95.8908 38.824 96.6762 38.14C97.4868 37.4307 98.4748 36.848 99.6402 36.392C100.831 35.936 102.072 35.708 103.364 35.708C105.416 35.708 107.215 36.1513 108.76 37.038C110.305 37.9247 111.521 39.1407 112.408 40.686C113.295 42.2313 113.738 44.0047 113.738 46.006C113.738 47.982 113.295 49.7553 112.408 51.326C111.547 52.8713 110.331 54.1 108.76 55.012C107.215 55.8987 105.454 56.342 103.478 56.342C102.085 56.342 100.767 56.1013 99.5262 55.62C98.2848 55.1133 97.2462 54.4927 96.4102 53.758C95.5742 53.0233 95.0548 52.2887 94.8522 51.554L95.8402 51.022V64.36H91.8882ZM102.832 52.732C104.225 52.732 105.454 52.4407 106.518 51.858C107.582 51.2753 108.418 50.4773 109.026 49.464C109.659 48.4507 109.976 47.298 109.976 46.006C109.976 44.714 109.672 43.574 109.064 42.586C108.456 41.5727 107.62 40.7747 106.556 40.192C105.492 39.6093 104.251 39.318 102.832 39.318C101.439 39.318 100.197 39.6093 99.1082 40.192C98.0442 40.7493 97.1955 41.5347 96.5622 42.548C95.9542 43.5613 95.6502 44.714 95.6502 46.006C95.6502 47.298 95.9542 48.4507 96.5622 49.464C97.1955 50.4773 98.0442 51.2753 99.1082 51.858C100.197 52.4407 101.439 52.732 102.832 52.732Z" stroke="black" stroke-width="2" mask="url(#path-1-outside-1_127_223)"/>
<path d="M121.499 56V27.88H125.413V56H121.499Z" stroke="black" stroke-width="2" mask="url(#path-1-outside-1_127_223)"/>
<path d="M144.245 56.38C142.041 56.38 140.078 55.9367 138.355 55.05C136.658 54.138 135.315 52.9093 134.327 51.364C133.339 49.7933 132.845 48.0073 132.845 46.006C132.845 44.0047 133.339 42.2313 134.327 40.686C135.315 39.1153 136.658 37.8867 138.355 37C140.078 36.088 142.041 35.632 144.245 35.632C146.424 35.632 148.362 36.088 150.059 37C151.782 37.8867 153.137 39.1153 154.125 40.686C155.113 42.2313 155.607 44.0047 155.607 46.006C155.607 48.0073 155.113 49.7933 154.125 51.364C153.137 52.9093 151.782 54.138 150.059 55.05C148.362 55.9367 146.424 56.38 144.245 56.38ZM144.245 52.808C145.638 52.808 146.892 52.5167 148.007 51.934C149.147 51.326 150.034 50.5153 150.667 49.502C151.326 48.4633 151.642 47.298 151.617 46.006C151.642 44.6887 151.326 43.5233 150.667 42.51C150.034 41.4713 149.147 40.6607 148.007 40.078C146.892 39.4953 145.638 39.204 144.245 39.204C142.852 39.204 141.585 39.508 140.445 40.116C139.305 40.6987 138.406 41.4967 137.747 42.51C137.114 43.5233 136.81 44.6887 136.835 46.006C136.81 47.298 137.114 48.4633 137.747 49.502C138.406 50.5153 139.305 51.326 140.445 51.934C141.585 52.5167 142.852 52.808 144.245 52.808Z" stroke="black" stroke-width="2" mask="url(#path-1-outside-1_127_223)"/>
<path d="M171.3 56.38C169.349 56.38 167.614 55.9367 166.094 55.05C164.574 54.138 163.371 52.8967 162.484 51.326C161.623 49.7553 161.192 47.9693 161.192 45.968C161.192 43.9667 161.635 42.1933 162.522 40.648C163.434 39.0773 164.675 37.8487 166.246 36.962C167.817 36.0753 169.603 35.632 171.604 35.632C172.82 35.632 173.935 35.7967 174.948 36.126C175.987 36.43 176.886 36.8607 177.646 37.418C178.406 37.9753 179.014 38.596 179.47 39.28C179.926 39.9387 180.179 40.6353 180.23 41.37L179.28 41.218V36.05H183.194V56H179.28V50.946L180.116 50.908C180.015 51.5413 179.711 52.1873 179.204 52.846C178.723 53.4793 178.064 54.062 177.228 54.594C176.417 55.126 175.505 55.5567 174.492 55.886C173.479 56.2153 172.415 56.38 171.3 56.38ZM172.288 52.77C173.681 52.77 174.91 52.4787 175.974 51.896C177.063 51.3133 177.912 50.5153 178.52 49.502C179.128 48.4633 179.432 47.2853 179.432 45.968C179.432 44.7013 179.128 43.5613 178.52 42.548C177.912 41.5347 177.063 40.7367 175.974 40.154C174.91 39.546 173.681 39.242 172.288 39.242C170.895 39.242 169.666 39.546 168.602 40.154C167.538 40.7367 166.702 41.5347 166.094 42.548C165.486 43.5613 165.182 44.7013 165.182 45.968C165.182 47.2853 165.486 48.4633 166.094 49.502C166.702 50.5153 167.538 51.3133 168.602 51.896C169.666 52.4787 170.895 52.77 172.288 52.77Z" stroke="black" stroke-width="2" mask="url(#path-1-outside-1_127_223)"/>
<path d="M201.071 56.38C199.019 56.38 197.207 55.9367 195.637 55.05C194.066 54.138 192.837 52.9093 191.951 51.364C191.064 49.7933 190.621 48.0073 190.621 46.006C190.621 44.0047 191.064 42.2313 191.951 40.686C192.863 39.1153 194.104 37.8867 195.675 37C197.271 36.088 199.082 35.632 201.109 35.632C202.299 35.632 203.414 35.7967 204.453 36.126C205.517 36.4553 206.454 36.8987 207.265 37.456C208.101 37.988 208.747 38.5833 209.203 39.242C209.659 39.8753 209.887 40.5087 209.887 41.142L208.747 41.218V27.88H212.661V56H208.747V50.946L209.507 51.06C209.507 51.668 209.266 52.276 208.785 52.884C208.329 53.492 207.708 54.062 206.923 54.594C206.137 55.126 205.238 55.5567 204.225 55.886C203.211 56.2153 202.16 56.38 201.071 56.38ZM201.755 52.922C203.148 52.922 204.377 52.618 205.441 52.01C206.53 51.402 207.379 50.5787 207.987 49.54C208.595 48.5013 208.899 47.3233 208.899 46.006C208.899 44.6887 208.595 43.5107 207.987 42.472C207.379 41.4333 206.53 40.6227 205.441 40.04C204.377 39.432 203.148 39.128 201.755 39.128C200.361 39.128 199.12 39.432 198.031 40.04C196.967 40.6227 196.131 41.4333 195.523 42.472C194.915 43.5107 194.611 44.6887 194.611 46.006C194.611 47.3233 194.915 48.5013 195.523 49.54C196.131 50.5787 196.967 51.402 198.031 52.01C199.12 52.618 200.361 52.922 201.755 52.922Z" stroke="black" stroke-width="2" mask="url(#path-1-outside-1_127_223)"/>
<path d="M235.762 56V29.4H239.6L257.992 51.174L257.536 51.516C257.409 50.832 257.308 50.0973 257.232 49.312C257.156 48.5013 257.08 47.6653 257.004 46.804C256.953 45.9173 256.903 45.0053 256.852 44.068C256.827 43.1053 256.801 42.13 256.776 41.142C256.776 40.154 256.776 39.1533 256.776 38.14V29.4H260.88V56H256.966L238.84 35.024L239.106 34.492C239.182 35.6067 239.258 36.62 239.334 37.532C239.41 38.4187 239.486 39.2293 239.562 39.964C239.638 40.6987 239.689 41.37 239.714 41.978C239.765 42.5607 239.803 43.1053 239.828 43.612C239.853 44.0933 239.866 44.5367 239.866 44.942V56H235.762Z" stroke="black" stroke-width="2" mask="url(#path-1-outside-1_127_223)"/>
<path d="M280.33 56.38C278.05 56.38 276.023 55.9493 274.25 55.088C272.476 54.2013 271.083 52.998 270.07 51.478C269.082 49.958 268.588 48.21 268.588 46.234C268.588 44.6127 268.879 43.156 269.462 41.864C270.044 40.572 270.842 39.4573 271.856 38.52C272.894 37.5827 274.11 36.8607 275.504 36.354C276.897 35.8473 278.392 35.594 279.988 35.594C281.432 35.594 282.774 35.8347 284.016 36.316C285.282 36.7973 286.384 37.4687 287.322 38.33C288.259 39.1913 288.981 40.2173 289.488 41.408C290.02 42.5733 290.273 43.8653 290.248 45.284L290.21 47.108H271.78L270.906 43.992H286.828L286.258 44.486V43.574C286.156 42.738 285.802 41.9907 285.194 41.332C284.586 40.6733 283.826 40.154 282.914 39.774C282.002 39.394 281.026 39.204 279.988 39.204C278.468 39.204 277.138 39.4447 275.998 39.926C274.883 40.4073 274.009 41.1547 273.376 42.168C272.768 43.156 272.464 44.4227 272.464 45.968C272.464 47.3613 272.818 48.5647 273.528 49.578C274.237 50.5913 275.225 51.3767 276.492 51.934C277.758 52.4913 279.215 52.77 280.862 52.77C282.28 52.77 283.509 52.5673 284.548 52.162C285.586 51.7567 286.574 51.1993 287.512 50.49L289.374 53.34C288.715 53.8973 287.892 54.4167 286.904 54.898C285.916 55.354 284.852 55.7213 283.712 56C282.597 56.2533 281.47 56.38 280.33 56.38Z" stroke="black" stroke-width="2" mask="url(#path-1-outside-1_127_223)"/>
<path d="M301.795 56L294.765 36.05L298.869 36.012L303.771 51.25L302.897 51.174L308.483 39.204H311.257L316.919 51.212L316.045 51.288L321.365 36.05H325.317L318.059 56H315.361L309.015 42.282L310.649 42.168L304.455 56H301.795Z" stroke="black" stroke-width="2" mask="url(#path-1-outside-1_127_223)"/>
<path d="M342.863 56L354.225 29.4H358.671L369.957 56H365.511L358.291 39.052C358.164 38.748 357.987 38.3047 357.759 37.722C357.556 37.114 357.328 36.468 357.075 35.784C356.821 35.1 356.581 34.454 356.353 33.846C356.125 33.2127 355.947 32.7187 355.821 32.364L356.847 32.326C356.669 32.8327 356.467 33.39 356.239 33.998C356.036 34.606 355.808 35.2267 355.555 35.86C355.327 36.4933 355.099 37.1013 354.871 37.684C354.643 38.2413 354.44 38.748 354.263 39.204L347.081 56H342.863ZM347.841 49.54L349.437 45.588H362.965L364.295 49.54H347.841Z" stroke="black" stroke-width="2" mask="url(#path-1-outside-1_127_223)"/>
<path d="M383.917 56.38C381.992 56.38 380.231 56.0887 378.635 55.506C377.065 54.9233 375.747 54.0113 374.683 52.77L377.343 50.414C378.205 51.326 379.18 52.01 380.269 52.466C381.384 52.922 382.613 53.15 383.955 53.15C384.487 53.15 385.019 53.0993 385.551 52.998C386.083 52.8967 386.565 52.7447 386.995 52.542C387.426 52.3393 387.768 52.0733 388.021 51.744C388.275 51.4147 388.401 51.0347 388.401 50.604C388.401 49.8693 387.971 49.2993 387.109 48.894C386.653 48.7167 386.096 48.5267 385.437 48.324C384.779 48.1213 384.006 47.9313 383.119 47.754C381.625 47.4247 380.333 47.0573 379.243 46.652C378.154 46.2213 377.28 45.702 376.621 45.094C376.14 44.6127 375.773 44.068 375.519 43.46C375.291 42.852 375.177 42.1553 375.177 41.37C375.177 40.534 375.38 39.7613 375.785 39.052C376.216 38.3427 376.811 37.7347 377.571 37.228C378.331 36.7213 379.218 36.3287 380.231 36.05C381.245 35.7713 382.334 35.632 383.499 35.632C384.538 35.632 385.589 35.7587 386.653 36.012C387.743 36.24 388.756 36.5947 389.693 37.076C390.656 37.532 391.454 38.1147 392.087 38.824L389.921 41.37C389.339 40.8887 388.68 40.458 387.945 40.078C387.236 39.698 386.501 39.4067 385.741 39.204C384.981 38.976 384.272 38.862 383.613 38.862C383.056 38.862 382.499 38.9127 381.941 39.014C381.384 39.09 380.89 39.2293 380.459 39.432C380.054 39.6093 379.725 39.85 379.471 40.154C379.218 40.458 379.091 40.8253 379.091 41.256C379.091 41.5853 379.167 41.8893 379.319 42.168C379.497 42.4213 379.725 42.6493 380.003 42.852C380.434 43.1307 381.017 43.384 381.751 43.612C382.486 43.84 383.36 44.0553 384.373 44.258C385.691 44.5367 386.856 44.866 387.869 45.246C388.908 45.6007 389.769 46.044 390.453 46.576C391.036 47.0067 391.467 47.526 391.745 48.134C392.049 48.742 392.201 49.4387 392.201 50.224C392.201 51.4653 391.821 52.5547 391.061 53.492C390.327 54.404 389.339 55.1133 388.097 55.62C386.856 56.1267 385.463 56.38 383.917 56.38Z" stroke="black" stroke-width="2" mask="url(#path-1-outside-1_127_223)"/>
<path d="M406.962 56.38C405.037 56.38 403.276 56.0887 401.68 55.506C400.109 54.9233 398.792 54.0113 397.728 52.77L400.388 50.414C401.25 51.326 402.225 52.01 403.314 52.466C404.429 52.922 405.658 53.15 407 53.15C407.532 53.15 408.064 53.0993 408.596 52.998C409.128 52.8967 409.61 52.7447 410.04 52.542C410.471 52.3393 410.813 52.0733 411.066 51.744C411.32 51.4147 411.446 51.0347 411.446 50.604C411.446 49.8693 411.016 49.2993 410.154 48.894C409.698 48.7167 409.141 48.5267 408.482 48.324C407.824 48.1213 407.051 47.9313 406.164 47.754C404.67 47.4247 403.378 47.0573 402.288 46.652C401.199 46.2213 400.325 45.702 399.666 45.094C399.185 44.6127 398.818 44.068 398.564 43.46C398.336 42.852 398.222 42.1553 398.222 41.37C398.222 40.534 398.425 39.7613 398.83 39.052C399.261 38.3427 399.856 37.7347 400.616 37.228C401.376 36.7213 402.263 36.3287 403.276 36.05C404.29 35.7713 405.379 35.632 406.544 35.632C407.583 35.632 408.634 35.7587 409.698 36.012C410.788 36.24 411.801 36.5947 412.738 37.076C413.701 37.532 414.499 38.1147 415.132 38.824L412.966 41.37C412.384 40.8887 411.725 40.458 410.99 40.078C410.281 39.698 409.546 39.4067 408.786 39.204C408.026 38.976 407.317 38.862 406.658 38.862C406.101 38.862 405.544 38.9127 404.986 39.014C404.429 39.09 403.935 39.2293 403.504 39.432C403.099 39.6093 402.77 39.85 402.516 40.154C402.263 40.458 402.136 40.8253 402.136 41.256C402.136 41.5853 402.212 41.8893 402.364 42.168C402.542 42.4213 402.77 42.6493 403.048 42.852C403.479 43.1307 404.061 43.384 404.796 43.612C405.531 43.84 406.405 44.0553 407.418 44.258C408.736 44.5367 409.901 44.866 410.914 45.246C411.953 45.6007 412.814 46.044 413.498 46.576C414.081 47.0067 414.512 47.526 414.79 48.134C415.094 48.742 415.246 49.4387 415.246 50.224C415.246 51.4653 414.866 52.5547 414.106 53.492C413.372 54.404 412.384 55.1133 411.142 55.62C409.901 56.1267 408.508 56.38 406.962 56.38Z" stroke="black" stroke-width="2" mask="url(#path-1-outside-1_127_223)"/>
<path d="M423.395 56V36.05H427.309V56H423.395ZM425.295 31.49C424.459 31.49 423.813 31.2747 423.357 30.844C422.901 30.4133 422.673 29.8053 422.673 29.02C422.673 28.2853 422.901 27.69 423.357 27.234C423.838 26.778 424.484 26.55 425.295 26.55C426.131 26.55 426.777 26.7653 427.233 27.196C427.689 27.6267 427.917 28.2347 427.917 29.02C427.917 29.7547 427.676 30.35 427.195 30.806C426.739 31.262 426.106 31.49 425.295 31.49Z" stroke="black" stroke-width="2" mask="url(#path-1-outside-1_127_223)"/>
<path d="M447.139 64.74C445.366 64.74 443.732 64.512 442.237 64.056C440.742 63.6 439.539 63.03 438.627 62.346L440.033 59.23C440.565 59.5593 441.198 59.876 441.933 60.18C442.668 60.484 443.478 60.7373 444.365 60.94C445.252 61.1427 446.176 61.244 447.139 61.244C448.558 61.244 449.774 60.9907 450.787 60.484C451.8 59.9773 452.586 59.23 453.143 58.242C453.7 57.254 453.979 56.0507 453.979 54.632V51.402L454.397 51.668C454.245 52.428 453.751 53.1753 452.915 53.91C452.104 54.6193 451.078 55.2147 449.837 55.696C448.621 56.152 447.342 56.38 445.999 56.38C443.947 56.38 442.123 55.9367 440.527 55.05C438.956 54.138 437.715 52.9093 436.803 51.364C435.891 49.7933 435.435 48.0073 435.435 46.006C435.435 44.0047 435.891 42.2313 436.803 40.686C437.74 39.1153 439.02 37.8867 440.641 37C442.262 36.088 444.112 35.632 446.189 35.632C446.873 35.632 447.595 35.7207 448.355 35.898C449.14 36.0753 449.9 36.3287 450.635 36.658C451.37 36.962 452.041 37.3167 452.649 37.722C453.257 38.1273 453.751 38.5707 454.131 39.052C454.536 39.508 454.764 39.964 454.815 40.42L453.979 40.724V36.05H457.893V54.176C457.893 55.924 457.614 57.444 457.057 58.736C456.525 60.0533 455.778 61.1553 454.815 62.042C453.852 62.9287 452.712 63.6 451.395 64.056C450.078 64.512 448.659 64.74 447.139 64.74ZM446.873 52.77C448.292 52.77 449.546 52.4787 450.635 51.896C451.75 51.3133 452.611 50.5153 453.219 49.502C453.827 48.4887 454.131 47.3233 454.131 46.006C454.131 44.6887 453.814 43.5233 453.181 42.51C452.573 41.4713 451.724 40.6607 450.635 40.078C449.546 39.4953 448.292 39.204 446.873 39.204C445.429 39.204 444.15 39.508 443.035 40.116C441.92 40.6987 441.034 41.5093 440.375 42.548C439.742 43.5613 439.425 44.714 439.425 46.006C439.425 47.298 439.742 48.4633 440.375 49.502C441.034 50.5153 441.92 51.3133 443.035 51.896C444.15 52.4787 445.429 52.77 446.873 52.77Z" stroke="black" stroke-width="2" mask="url(#path-1-outside-1_127_223)"/>
<path d="M467.546 56V36.05H471.46V40.762L470.472 41.066C470.852 40.154 471.448 39.2927 472.258 38.482C473.069 37.646 474.032 36.962 475.146 36.43C476.286 35.898 477.49 35.632 478.756 35.632C480.504 35.632 481.961 35.974 483.126 36.658C484.317 37.3167 485.204 38.2667 485.786 39.508C486.369 40.7493 486.66 42.244 486.66 43.992V56H482.746V44.41C482.746 43.27 482.531 42.32 482.1 41.56C481.695 40.7747 481.1 40.192 480.314 39.812C479.554 39.4067 478.655 39.2167 477.616 39.242C476.73 39.242 475.906 39.394 475.146 39.698C474.412 40.002 473.766 40.4073 473.208 40.914C472.651 41.4207 472.22 41.9907 471.916 42.624C471.612 43.232 471.46 43.8653 471.46 44.524V56H469.522C469.066 56 468.674 56 468.344 56C468.015 56 467.749 56 467.546 56Z" stroke="black" stroke-width="2" mask="url(#path-1-outside-1_127_223)"/>
<path d="M496.187 56V36.05H500.139V40.914L499.113 41.066C499.315 40.458 499.67 39.8373 500.177 39.204C500.683 38.5707 501.317 38.0007 502.077 37.494C502.837 36.962 503.673 36.5313 504.585 36.202C505.522 35.8727 506.523 35.708 507.587 35.708C508.828 35.708 509.943 35.9107 510.931 36.316C511.919 36.7213 512.717 37.342 513.325 38.178C513.958 39.014 514.376 40.0527 514.579 41.294L513.667 41.066L513.933 40.42C514.237 39.888 514.655 39.356 515.187 38.824C515.744 38.2667 516.39 37.76 517.125 37.304C517.885 36.8227 518.695 36.4427 519.557 36.164C520.418 35.86 521.305 35.708 522.217 35.708C523.99 35.708 525.421 36.05 526.511 36.734C527.6 37.418 528.398 38.3933 528.905 39.66C529.411 40.9267 529.665 42.434 529.665 44.182V56H525.713V44.562C525.713 43.422 525.548 42.472 525.219 41.712C524.915 40.9267 524.433 40.3313 523.775 39.926C523.116 39.5207 522.255 39.318 521.191 39.318C520.304 39.318 519.468 39.47 518.683 39.774C517.923 40.0527 517.251 40.458 516.669 40.99C516.086 41.4967 515.63 42.092 515.301 42.776C514.997 43.46 514.845 44.1947 514.845 44.98V56H510.893V44.486C510.893 43.422 510.715 42.51 510.361 41.75C510.006 40.9647 509.474 40.3693 508.765 39.964C508.055 39.5333 507.156 39.318 506.067 39.318C505.205 39.318 504.42 39.47 503.711 39.774C503.001 40.078 502.368 40.4833 501.811 40.99C501.279 41.4967 500.861 42.0667 500.557 42.7C500.278 43.308 500.139 43.9413 500.139 44.6V56H496.187Z" stroke="black" stroke-width="2" mask="url(#path-1-outside-1_127_223)"/>
<path d="M548.705 56.38C546.425 56.38 544.398 55.9493 542.625 55.088C540.851 54.2013 539.458 52.998 538.445 51.478C537.457 49.958 536.963 48.21 536.963 46.234C536.963 44.6127 537.254 43.156 537.837 41.864C538.419 40.572 539.217 39.4573 540.231 38.52C541.269 37.5827 542.485 36.8607 543.879 36.354C545.272 35.8473 546.767 35.594 548.363 35.594C549.807 35.594 551.149 35.8347 552.391 36.316C553.657 36.7973 554.759 37.4687 555.697 38.33C556.634 39.1913 557.356 40.2173 557.863 41.408C558.395 42.5733 558.648 43.8653 558.623 45.284L558.585 47.108H540.155L539.281 43.992H555.203L554.633 44.486V43.574C554.531 42.738 554.177 41.9907 553.569 41.332C552.961 40.6733 552.201 40.154 551.289 39.774C550.377 39.394 549.401 39.204 548.363 39.204C546.843 39.204 545.513 39.4447 544.373 39.926C543.258 40.4073 542.384 41.1547 541.751 42.168C541.143 43.156 540.839 44.4227 540.839 45.968C540.839 47.3613 541.193 48.5647 541.903 49.578C542.612 50.5913 543.6 51.3767 544.867 51.934C546.133 52.4913 547.59 52.77 549.237 52.77C550.655 52.77 551.884 52.5673 552.923 52.162C553.961 51.7567 554.949 51.1993 555.887 50.49L557.749 53.34C557.09 53.8973 556.267 54.4167 555.279 54.898C554.291 55.354 553.227 55.7213 552.087 56C550.972 56.2533 549.845 56.38 548.705 56.38Z" stroke="black" stroke-width="2" mask="url(#path-1-outside-1_127_223)"/>
<path d="M566.703 56V36.05H570.617V40.762L569.629 41.066C570.009 40.154 570.604 39.2927 571.415 38.482C572.225 37.646 573.188 36.962 574.303 36.43C575.443 35.898 576.646 35.632 577.913 35.632C579.661 35.632 581.117 35.974 582.283 36.658C583.473 37.3167 584.36 38.2667 584.943 39.508C585.525 40.7493 585.817 42.244 585.817 43.992V56H581.903V44.41C581.903 43.27 581.687 42.32 581.257 41.56C580.851 40.7747 580.256 40.192 579.471 39.812C578.711 39.4067 577.811 39.2167 576.773 39.242C575.886 39.242 575.063 39.394 574.303 39.698C573.568 40.002 572.922 40.4073 572.365 40.914C571.807 41.4207 571.377 41.9907 571.073 42.624C570.769 43.232 570.617 43.8653 570.617 44.524V56H568.679C568.223 56 567.83 56 567.501 56C567.171 56 566.905 56 566.703 56Z" stroke="black" stroke-width="2" mask="url(#path-1-outside-1_127_223)"/>
<path d="M598.307 56V30.502H602.221V56H598.307ZM593.253 39.85V36.05H608.073V39.85H593.253Z" stroke="black" stroke-width="2" mask="url(#path-1-outside-1_127_223)"/>
</g>
<defs>
<filter id="filter0_d_127_223" x="0" y="0" width="665" height="94" filterUnits="userSpaceOnUse" color-interpolation-filters="sRGB">
<feFlood flood-opacity="0" result="BackgroundImageFix"/>
<feColorMatrix in="SourceAlpha" type="matrix" values="0 0 0 0 0 0 0 0 0 0 0 0 0 0 0 0 0 0 127 0" result="hardAlpha"/>
<feOffset dy="4"/>
<feGaussianBlur stdDeviation="2"/>
<feComposite in2="hardAlpha" operator="out"/>
<feColorMatrix type="matrix" values="0 0 0 0 0 0 0 0 0 0 0 0 0 0 0 0 0 0 0.25 0"/>
<feBlend mode="normal" in2="BackgroundImageFix" result="effect1_dropShadow_127_223"/>
<feBlend mode="normal" in="SourceGraphic" in2="effect1_dropShadow_127_223" result="shape"/>
</filter>
</defs>
</svg>
